<?xml version="1.0" standalone="no"?>
<!DOCTYPE svg PUBLIC "-//W3C//DTD SVG 20010904//EN"
 "http://www.w3.org/TR/2001/REC-SVG-20010904/DTD/svg10.dtd">
<svg version="1.0" xmlns="http://www.w3.org/2000/svg"
 width="1000.000000pt" height="1000.000000pt" viewBox="0 0 1000.000000 1000.000000"
 preserveAspectRatio="xMidYMid meet">
<metadata>
Created by potrace 1.11, written by Peter Selinger 2001-2013
</metadata>
<g transform="translate(0.000000,1000.000000) scale(0.100000,-0.100000)"
fill="#000000" stroke="none">
<path d="M3144 7984 c-366 -229 -732 -583 -983 -954 -332 -489 -530 -1051
-580 -1645 -12 -135 -6 -527 8 -650 50 -409 167 -798 352 -1167 27 -54 51 -98
54 -98 3 0 -4 19 -16 43 -12 23 -23 56 -25 72 -2 22 6 12 31 -41 18 -38 64
-122 102 -185 38 -62 80 -133 93 -156 13 -24 26 -41 28 -38 3 2 27 -26 55 -63
68 -91 165 -210 179 -218 6 -4 -23 37 -64 92 -41 54 -96 131 -123 169 -27 39
-64 88 -82 109 -34 40 -45 68 -18 46 8 -6 50 -62 93 -123 201 -282 516 -604
757 -771 l40 -28 -35 29 c-336 275 -507 446 -697 698 -294 390 -512 885 -607
1380 -23 117 -46 308 -45 368 1 32 8 -6 19 -98 10 -82 23 -179 29 -215 21
-118 84 -360 92 -354 5 3 11 -7 15 -21 3 -14 8 -24 11 -22 2 3 -10 57 -27 121
-17 64 -29 122 -26 129 2 7 5 5 5 -4 1 -9 19 -80 41 -158 161 -571 441 -1052
850 -1462 260 -261 533 -461 852 -625 102 -52 262 -124 276 -124 4 0 -66 36
-155 80 -90 44 -172 89 -183 100 -12 12 -62 46 -113 77 -572 345 -1035 864
-1296 1451 -129 290 -224 645 -262 982 -19 163 -16 558 5 730 123 1034 699
1921 1591 2455 77 46 161 94 188 106 26 13 47 26 47 30 0 3 -71 7 -157 7 -186
1 -142 21 -418 -187 -349 -264 -503 -406 -692 -641 -352 -437 -606 -1015 -693
-1575 -65 -420 -44 -910 54 -1310 46 -186 124 -412 192 -553 30 -64 53 -117
51 -119 -9 -8 -100 186 -145 307 -143 388 -202 729 -202 1160 0 405 53 725
180 1094 163 471 404 865 755 1234 141 148 284 271 500 427 218 158 210 151
197 159 -5 3 -49 -19 -98 -50z m-1409 -3277 c15 -132 25 -241 22 -243 -12 -12
-57 344 -56 441 0 33 2 56 4 50 2 -5 16 -117 30 -248z m32 -289 c-3 -7 -5 -2
-5 12 0 14 2 19 5 13 2 -7 2 -19 0 -25z m308 -989 c9 -17 15 -33 13 -35 -3 -2
-12 12 -21 31 -21 43 -13 47 8 4z"/>
<path d="M6356 8032 c-2 -4 21 -21 52 -37 633 -327 1139 -843 1437 -1468 248
-521 339 -1043 291 -1677 -10 -124 -19 -229 -21 -235 -2 -5 -3 125 0 290 4
385 -7 540 -62 815 -27 137 -75 303 -130 450 -39 105 -104 252 -109 247 -2 -2
16 -50 40 -108 101 -245 178 -520 216 -774 28 -180 38 -567 21 -751 -38 -399
-163 -841 -341 -1195 -163 -326 -343 -566 -654 -871 -94 -92 -167 -170 -164
-174 19 -18 277 197 448 372 316 324 540 680 699 1106 125 336 186 652 198
1023 22 721 -186 1397 -605 1974 -105 145 -178 229 -374 434 -94 98 -169 180
-166 182 9 9 264 -236 354 -340 201 -232 329 -427 474 -720 168 -340 265 -653
315 -1015 23 -163 31 -525 16 -701 -44 -511 -198 -982 -467 -1425 -224 -369
-564 -729 -924 -976 -190 -131 -374 -237 -387 -224 -2 2 0 14 7 25 6 12 9 21
6 21 -2 0 -82 -38 -177 -85 -355 -174 -627 -266 -1021 -343 l-46 -9 -6 81
c-24 344 -47 1506 -35 1776 4 91 8 179 8 195 1 22 4 26 10 15 5 -8 12 -125 16
-260 4 -134 10 -265 14 -290 17 -106 24 188 13 590 -11 438 -8 523 29 805 15
116 23 226 23 347 1 98 3 178 6 178 3 0 55 -10 115 -21 121 -23 296 -27 380
-10 88 19 303 24 442 12 124 -11 215 -23 623 -85 261 -40 439 -52 562 -37 56
7 105 14 109 17 3 2 3 20 0 41 -5 29 -11 39 -29 41 -30 5 -28 14 8 34 35 20
50 53 50 108 0 33 -6 44 -35 67 -19 15 -56 35 -82 44 -44 14 -49 19 -61 62
-12 44 -12 49 12 90 15 24 26 48 26 54 0 14 -196 157 -259 189 -29 14 -83 33
-121 42 -61 15 -70 20 -70 40 0 13 5 32 10 42 9 16 5 23 -27 44 -21 13 -63 30
-93 37 -92 22 -649 17 -1240 -11 -107 -5 -226 -9 -264 -10 l-69 0 6 153 c3 83
27 334 53 557 45 383 48 420 48 670 1 225 -2 275 -17 329 -10 36 -20 67 -23
70 -12 12 -58 -27 -69 -59 l-13 -35 -7 30 c-14 63 -25 81 -51 83 -13 1 -39 9
-56 18 -21 11 -33 13 -36 6 -2 -6 -16 -29 -32 -51 -21 -29 -33 -62 -44 -127
-9 -48 -17 -88 -18 -90 -4 -4 -50 -7 -74 -6 -12 1 -38 14 -59 28 l-38 25 -55
-53 c-37 -36 -65 -76 -88 -125 -58 -126 -129 -383 -122 -443 2 -18 -2 -25 -17
-28 -16 -2 -17 -1 -6 7 11 7 6 11 -23 16 -28 6 -41 3 -56 -10 -52 -47 -71
-230 -63 -610 3 -143 3 -290 -1 -326 l-7 -66 -127 -6 c-139 -6 -284 -29 -707
-112 -154 -30 -302 -58 -330 -63 l-50 -10 45 -1 c25 0 103 4 174 9 72 5 132 7
134 5 14 -14 -85 -39 -178 -45 -100 -6 -180 -25 -180 -42 0 -4 91 -8 203 -9
l202 -1 -60 -19 c-86 -27 -167 -37 -365 -43 -190 -6 -465 -23 -517 -32 -47 -7
-41 -24 10 -25 23 0 60 -3 82 -8 38 -7 36 -7 -31 -13 -39 -4 -89 -14 -110 -23
-36 -15 -38 -17 -19 -28 15 -9 136 -12 452 -12 237 0 435 -3 439 -7 4 -5 -87
-8 -202 -8 -115 0 -273 -3 -351 -7 -136 -6 -142 -7 -152 -30 -11 -24 -5 -29
19 -13 18 11 40 -5 40 -30 0 -18 -47 -28 -150 -31 -89 -4 159 -17 320 -18 161
0 351 -16 379 -31 7 -4 -85 -10 -205 -14 -620 -19 -985 -63 -823 -98 44 -10
392 6 839 37 478 34 722 45 992 45 l226 0 6 -27 c12 -58 26 -367 26 -595 0
-131 6 -311 14 -400 8 -90 17 -311 21 -493 5 -299 14 -502 45 -1025 16 -273
49 -651 70 -810 24 -176 24 -168 3 -173 -15 -4 -14 -5 3 -6 17 -1 22 -12 32
-73 7 -40 21 -104 32 -143 l20 -70 -5 190 c-2 105 -16 341 -31 525 -36 459
-39 910 -5 910 12 0 30 -98 42 -232 8 -82 8 -200 0 -395 -6 -176 -7 -317 -1
-383 10 -106 21 -301 40 -685 10 -212 30 -379 49 -425 8 -19 10 18 6 140 -17
542 -18 622 -4 631 10 6 11 9 2 9 -10 0 -13 34 -13 138 0 75 4 143 9 150 15
25 40 -371 42 -673 3 -405 33 -843 59 -869 7 -7 10 46 10 144 0 84 3 150 6
147 4 -3 10 -47 15 -97 5 -49 14 -100 20 -112 l12 -22 9 24 c24 65 30 264 24
785 -6 523 -2 611 22 440 14 -98 15 -437 2 -719 -6 -131 -9 -240 -7 -243 3 -2
13 18 23 46 17 48 50 75 59 48 2 -7 13 -111 25 -232 12 -121 23 -224 26 -230
2 -5 1 103 -3 240 -10 302 -7 863 4 960 4 39 13 70 18 70 6 0 13 -118 17 -320
16 -732 59 -1335 89 -1260 17 45 5 726 -27 1441 l-7 151 129 17 c296 39 666
107 828 152 184 52 472 193 696 342 388 258 758 641 992 1027 258 426 414 875
474 1360 19 156 26 515 13 675 -62 794 -414 1561 -975 2124 -174 175 -381 343
-567 459 l-87 55 -210 1 c-115 0 -211 -3 -214 -7z m-1136 -6167 c0 -13 -4 -27
-10 -30 -6 -4 -10 8 -10 30 0 22 4 34 10 30 6 -3 10 -17 10 -30z"/>
<path d="M2015 3430 c9 -16 18 -30 21 -30 2 0 -2 14 -11 30 -9 17 -18 30 -21
30 -2 0 2 -13 11 -30z"/>
<path d="M2211 3135 c0 -5 6 -19 14 -29 8 -11 15 -15 15 -10 0 6 -7 19 -15 30
-8 10 -14 15 -14 9z"/>
<path d="M2555 2750 c134 -155 433 -394 675 -540 108 -65 445 -233 490 -244
l25 -6 -25 12 c-385 181 -539 268 -743 421 -140 105 -227 179 -372 317 -49 47
-72 65 -50 40z"/>
<path d="M3050 2376 c0 -2 14 -14 30 -26 17 -12 30 -19 30 -16 0 2 -13 14 -30
26 -16 12 -30 19 -30 16z"/>
<path d="M3820 2010 c8 -5 20 -10 25 -10 6 0 3 5 -5 10 -8 5 -19 10 -25 10 -5
0 -3 -5 5 -10z"/>
<path d="M3761 1951 c45 -30 457 -151 559 -165 25 -3 -31 14 -125 38 -93 25
-224 62 -290 85 -170 57 -163 54 -144 42z"/>
<path d="M4030 1837 c0 -7 251 -89 256 -84 3 2 -49 21 -113 42 -65 21 -124 40
-130 42 -7 3 -13 3 -13 0z"/>
<path d="M4593 1833 c9 -2 25 -2 35 0 9 3 1 5 -18 5 -19 0 -27 -2 -17 -5z"/>
<path d="M4378 1773 c6 -2 18 -2 25 0 6 3 1 5 -13 5 -14 0 -19 -2 -12 -5z"/>
</g>
</svg>
