<?xml version="1.0" encoding="utf-8"?>
<!-- Generator: Adobe Illustrator 23.0.1, SVG Export Plug-In . SVG Version: 6.00 Build 0)  -->
<svg version="1.1" id="Layer_1" xmlns="http://www.w3.org/2000/svg" xmlns:xlink="http://www.w3.org/1999/xlink" x="0px" y="0px"
	 viewBox="0 0 720 720" style="enable-background:new 0 0 720 720;" xml:space="preserve">
<style type="text/css">
	.st0{fill:none;}
	.st1{fill:#4B5B9C;}
</style>
<path class="st0" d="M446.94,115.83v51.45C522.95,198.25,576.54,272.86,576.54,360c0,114.89-93.14,208.02-208.02,208.02
	S160.49,474.89,160.49,360s93.14-208.02,208.02-208.02c14.3,0,28.26,1.44,41.74,4.19V107c-13.59-2.23-27.53-3.4-41.74-3.4
	c-141.61,0-256.4,114.8-256.4,256.4s114.8,256.4,256.4,256.4s256.4-114.8,256.4-256.4C624.92,245.75,550.18,148.97,446.94,115.83z"
	/>
<path class="st0" d="M446.94,205.36c-23.55-11.97-50.2-18.72-78.43-18.72c-95.74,0-173.35,77.61-173.35,173.35
	s77.61,173.35,173.35,173.35S541.86,455.74,541.86,360c0-65.59-36.43-122.67-90.15-152.12"/>
<path class="st0" d="M451.71,207.88c-1.58-0.86-3.17-1.7-4.77-2.52"/>
<g>
	<path class="st1" d="M368.51,45.41C194.77,45.41,53.92,186.26,53.92,360s140.85,314.59,314.59,314.59
		c27.08,0,53.36-3.42,78.43-9.86v-60.56c-24.72,7.94-51.07,12.24-78.43,12.24c-141.61,0-256.4-114.8-256.4-256.4
		s114.8-256.4,256.4-256.4c14.22,0,28.16,1.18,41.74,3.4v48.98c-13.18-2.62-26.8-4-40.74-4c-114.89,0-208.02,93.14-208.02,208.02
		s93.14,208.02,208.02,208.02c27.37,0,53.5-5.3,77.43-14.9v-38c-23.31,11.66-49.6,18.23-77.43,18.23
		c-95.74,0-173.35-77.61-173.35-173.35s77.61-173.35,173.35-173.35c27.83,0,54.12,6.57,77.43,18.23v-24.1v-0.99v-12.5v-51.45V55.27
		C421.87,48.84,395.59,45.41,368.51,45.41z"/>
	<path class="st1" d="M368.51,45.41C194.77,45.41,53.92,186.26,53.92,360s140.85,314.59,314.59,314.59
		c27.08,0,53.36-3.42,78.43-9.86v-60.56c-24.72,7.94-51.07,12.24-78.43,12.24c-141.61,0-256.4-114.8-256.4-256.4
		s114.8-256.4,256.4-256.4c14.22,0,28.16,1.18,41.74,3.4v48.98c-13.18-2.62-26.8-4-40.74-4c-114.89,0-208.02,93.14-208.02,208.02
		s93.14,208.02,208.02,208.02c27.37,0,53.5-5.3,77.43-14.9v-38c-23.31,11.66-49.6,18.23-77.43,18.23
		c-95.74,0-173.35-77.61-173.35-173.35s77.61-173.35,173.35-173.35c27.83,0,54.12,6.57,77.43,18.23v-24.1v-0.99v-12.5v-51.45V55.27
		C421.87,48.84,395.59,45.41,368.51,45.41z"/>
	<path class="st1" d="M368.51,45.41C194.77,45.41,53.92,186.26,53.92,360s140.85,314.59,314.59,314.59
		c27.08,0,53.36-3.42,78.43-9.86v-60.56c-24.72,7.94-51.07,12.24-78.43,12.24c-141.61,0-256.4-114.8-256.4-256.4
		s114.8-256.4,256.4-256.4c14.22,0,28.16,1.18,41.74,3.4v48.98c-13.18-2.62-26.8-4-40.74-4c-114.89,0-208.02,93.14-208.02,208.02
		s93.14,208.02,208.02,208.02c27.37,0,53.5-5.3,77.43-14.9v-38c-23.31,11.66-49.6,18.23-77.43,18.23
		c-95.74,0-173.35-77.61-173.35-173.35s77.61-173.35,173.35-173.35c27.83,0,54.12,6.57,77.43,18.23v-24.1v-0.99v-12.5v-51.45V55.27
		C421.87,48.84,395.59,45.41,368.51,45.41z"/>
	<path class="st1" d="M368.51,45.41C194.77,45.41,53.92,186.26,53.92,360s140.85,314.59,314.59,314.59
		c27.08,0,53.36-3.42,78.43-9.86v-60.56c-24.72,7.94-51.07,12.24-78.43,12.24c-141.61,0-256.4-114.8-256.4-256.4
		s114.8-256.4,256.4-256.4c14.22,0,28.16,1.18,41.74,3.4v48.98c-13.18-2.62-26.8-4-40.74-4c-114.89,0-208.02,93.14-208.02,208.02
		s93.14,208.02,208.02,208.02c27.37,0,53.5-5.3,77.43-14.9v-38c-23.31,11.66-49.6,18.23-77.43,18.23
		c-95.74,0-173.35-77.61-173.35-173.35s77.61-173.35,173.35-173.35c27.83,0,54.12,6.57,77.43,18.23v-24.1v-0.99v-12.5v-51.45V55.27
		C421.87,48.84,395.59,45.41,368.51,45.41z"/>
	<path class="st1" d="M368.51,45.41C194.77,45.41,53.92,186.26,53.92,360s140.85,314.59,314.59,314.59
		c27.08,0,53.36-3.42,78.43-9.86v-60.56c-24.72,7.94-51.07,12.24-78.43,12.24c-141.61,0-256.4-114.8-256.4-256.4
		s114.8-256.4,256.4-256.4c14.22,0,28.16,1.18,41.74,3.4v48.98c-13.18-2.62-26.8-4-40.74-4c-114.89,0-208.02,93.14-208.02,208.02
		s93.14,208.02,208.02,208.02c27.37,0,53.5-5.3,77.43-14.9v-38c-23.31,11.66-49.6,18.23-77.43,18.23
		c-95.74,0-173.35-77.61-173.35-173.35s77.61-173.35,173.35-173.35c27.83,0,54.12,6.57,77.43,18.23v-24.1v-0.99v-12.5v-51.45V55.27
		C421.87,48.84,395.59,45.41,368.51,45.41z"/>
	<path d="M368.51,45.41C194.77,45.41,53.92,186.26,53.92,360s140.85,314.59,314.59,314.59c27.08,0,53.36-3.42,78.43-9.86v-60.56
		c-24.72,7.94-51.07,12.24-78.43,12.24c-141.61,0-256.4-114.8-256.4-256.4s114.8-256.4,256.4-256.4c14.22,0,28.16,1.18,41.74,3.4
		v48.98c-13.18-2.62-26.8-4-40.74-4c-114.89,0-208.02,93.14-208.02,208.02s93.14,208.02,208.02,208.02c27.37,0,53.5-5.3,77.43-14.9
		v-38c-23.31,11.66-49.6,18.23-77.43,18.23c-95.74,0-173.35-77.61-173.35-173.35s77.61-173.35,173.35-173.35
		c27.83,0,54.12,6.57,77.43,18.23v-24.1v-0.99v-12.5v-51.45V55.27C421.87,48.84,395.59,45.41,368.51,45.41z"/>
</g>
<g>
	<path d="M378.63,502.18c-28.6-0.04-51.68-5.9-73.27-18.02c-10.82-6.07-20.66-13.42-29.68-22.14
		c-12.86-12.42-22.77-26.85-30.51-43.19c-6.91-14.57-10.57-29.88-12-45.88c-2.08-23.13,0.83-45.6,9.73-66.94
		c4.07-9.76,8.91-19.27,15.17-27.81c8.55-11.68,18.26-22.25,29.69-30.92c19.07-14.45,40.26-23.91,63.69-27.6
		c27.89-4.4,54.93-1.22,80.93,10.34c12.45,5.54,23.9,12.73,34.37,21.71c12.06,10.33,22.04,22.35,30.4,36.06
		c7.01,11.5,11.25,23.99,15.19,36.8c4.52,14.72,4.94,29.75,4.43,44.89c-0.24,7.1-1.12,14.21-2.99,21.07
		c-3.54,12.99-7.31,25.99-14.11,37.61c-4.5,7.69-9.05,15.47-14.94,22.16c-4.68,5.32-9.4,10.67-14.68,15.31
		c-19.49,17.14-41.7,28.65-66.91,33.69C393.68,501.23,384.17,502.35,378.63,502.18z M380.54,262.82c-1.41,0.2-1.13,1.46-1.87,1.83
		c-0.57,0.29-1.11,1.22-1.76,0.26c-0.45-0.66-0.56-1.58-1.05-2.17c-0.63-0.75-1.55-1.42-2.55-1.02c-0.83,0.33-1.76,0.82-1.31,2.22
		c0.24,0.74-0.68,0.92-1.13,1.31c-0.6,0.52-1.16,1.09-1.74,1.64c-0.51,0.49,0.59,1.74-0.6,1.74c-1.06-0.01-1.56-0.9-1.75-2.04
		c-0.13-0.78-0.67-1.71-1.63-0.98c-3.56,2.71-7.16,1.02-10.66,0.07c-1.92-0.52-4.26,0.4-4.52,2.5c-0.09,0.73,0.12,1.52-0.84,1.72
		c-0.88,0.18-1.31-0.56-1.61-1.16c-0.9-1.76-2.17-1.84-3.76-1.16c-0.64,0.27-1.36,0.43-2.05,0.46c-1.17,0.05-2.56,0.18-1.74-1.84
		c0.33-0.83,0.13-1.28-0.78-1.09c-2.13,0.45-3.97-0.65-5.86-1.27c-1.77-0.58-3.31-0.95-5.03,0.11c-1.15,0.71-2.3,0.47-3.31-0.63
		c-0.83-0.9-1.85-1.61-2.78-2.4c-2.1,3.65-6.3,4.1-9.24,7.88c0.57-3.07-0.27-4.01-1.67-2.29c-1.61,1.97-3.05,1.1-4.65,0.5
		c-1.09-0.41-2.19-0.55-3.36-0.56c-6.66-0.08-13.2,1.31-19.83,1.69c-1.39,0.08-2.9-0.16-4.14,0.33c-5.26,2.1-9.8,5.23-12.72,10.45
		c-0.56,0.99-0.53,1.23,0.62,1.6c2.06,0.65,1.29,1.8,0.04,2.56c-0.8,0.49-1.81,0.73-2.75,0.87c-1.27,0.18-2.57,0.76-2.27,2.03
		c0.26,1.08,1.63,0.33,2.53,0.14c0.64-0.14,1.45-0.81,1.93-0.06c0.47,0.73-0.11,1.57-0.48,2.28c-0.35,0.69-1.06,0.88-1.69,1.22
		c-1.96,1.07-4.34,1.21-5.99,2.94c-0.66,0.7-2.25,1.5-1.85,2.01c0.69,0.89,1.43,1.53,1.91,2.73c0.33,0.83,1.38-1.03,2.37-0.88
		c0.56,2.18,0.59,1.93,2.56,2.15c1.85,0.2,3.6-0.06,5.9-0.68c-1.46,2.02-2.57,3.56-3.69,5.1c2.57-1.59,5.49-3.03,7.09-5.42
		c2.2-3.28,5.36-5.05,8.17-7.39c0.45-0.38,1.33-0.67,1.64,0.01c0.44,0.95-0.45,1.2-1.14,1.4c-1.62,0.48-2.22,1.62-2.11,3.27
		c1.57-1.34,4.08-1.46,4.85-3.37c0.75-1.86,2.18-1.99,3.11-1.43c2.97,1.8,6.14,1.27,9.26,1.49c1.57,0.11,3.17,0.19,3.94,2.11
		c0.23,0.58,1.08,1.22,1.71,0.77c2.53-1.81,4.26-1.34,5.36,1.69c0.42,1.18,1.34,1.89,2.03,2.83c0.98,1.34,3.02,2.31,1.61,4.61
		c-0.18,0.3-0.05,1.17,0.43,1.1c1.52-0.23,1,1.08,1.4,1.71c1.12,1.73,1.08,4.36,4.43,4.2c1.82-0.09,4.34,1.18,4.48,4.14
		c0.04,0.86,0.22,1.79-1.17,1.38c-2.01-0.6-3.41-0.52-2.39,2.31c0.13,0.37-0.08,0.89-0.17,1.33c-0.77,4-1.49,8.01-1.66,12.1
		c-0.07,1.68-0.03,3.51,1.56,4.31c1.42,0.71,1.51,1.81,1.7,3.07c0.33,2.14,1.02,3.92,3.4,4.55c1.58,0.42,2.67,1.54,3.27,3.28
		c0.49,1.42,0.74,3.18,2.69,4.08c0.26-1.24-0.93-2.94,1.14-3.17c1.73-0.2,2.05,0.96,2.44,2.22c0.25,0.8,0.82,1.37,1.4,1.94
		c3.28,3.25,5.41,7.46,8.42,10.96c1.21,1.41,2.17,3.14,1.32,5.27c-0.43,1.08,0.41,1.6,1.08,2.23c2.24,2.09,5.11,2.75,7.83,3.72
		c2.67,0.95,5.4,1.49,8.29,0.64c1.57-0.46,3.11,0.25,4.33,1.48c1.57,1.57,3.43,2.69,5.62,2.7c2.1,0,3.71,0.96,5.2,2.22
		c0.68,0.57,2.58,1.18,0.32,2.4c-0.52,0.28-0.42,1.19,0.47,1.38c1.52,0.33,2.62,1.37,3.86,2.24c2.51,1.76,3.85,1.49,4.84-0.83
		c-2.39,1.32-3.84,0.12-5.26-1.66c-1.51-1.9-0.73-3.8-0.34-5.73c0.63-3.14-0.42-4.37-3.52-4.02c-1.13,0.13-2.26,0.35-3.4,0.45
		c-1.39,0.12-1.78-0.31-1.41-1.91c0.6-2.56,1.79-4.86,2.54-7.34c0.28-0.92,0.43-1.85-0.84-1.54c-1.32,0.32-2.99,0.59-3.47,2.14
		c-0.78,2.56-2.42,3.6-4.81,4.34c-3.99,1.23-8.27-1.4-8.69-5.78c-0.36-3.77,1.44-7.31,1.15-11.09c-0.03-0.38,0.31-0.9,0.62-1.17
		c3.17-2.64,6.38-5.38,10.86-3.7c1.15,0.43,1.68-0.72,2.6-0.56c-0.13-2.2,1.57-1.3,2.55-1.61c2.36-0.76,4.45,1.01,6.62,0.88
		c2.05-0.12,2.61,0.86,3.17,2.4c0.49,1.34,0.37,2.89,1.28,4.09c0.36,0.47,0.54,1.35,1.33,1.01c0.6-0.26,0.79-1.05,0.67-1.67
		c-0.27-1.43-0.67-2.83-1.05-4.24c-0.88-3.25-0.33-5.09,2.29-7.14c1.12-0.88,2.37-1.57,3.48-2.46c1.94-1.54,3.77-3.04,2.76-6.2
		c-0.5-1.55-0.32-4.58,1.2-4.48c3.22,0.21,3.92-2.32,5.79-3.67c1.92-1.39,4.11-2.24,5.24-4.58c0.13-0.28,0.55-0.55,0.85-0.57
		c2.78-0.19,4.66-2.54,7.23-3.21c0.93-0.24,1.69-0.98,1.72-1.84c0.03-0.81,0.01-1.81-1.28-2.3c-1.31-0.5-0.95-1.2,0.39-1.43
		c0.66-0.11,1.5-0.55,1.28-1.42c-0.22-0.85-1.15-0.7-1.83-0.67c-1.74,0.07-3.19,0.95-4.6,1.91c-1.42,0.98-2.84,1.96-4.26,2.94
		c3.04-4.39,6.46-8.07,12.27-7.32c1.56,0.2,3.16,0.16,4.74,0.25c1.08,0.06,2.2,0.1,3-0.72c1.19-1.22,2.53-1.86,4.19-1.99
		c0.67-0.05,1.44-0.36,1.53-1.26c0.09-0.91-0.7-1.19-1.25-1.6c-0.78-0.58-1.66-0.39-2.55-0.35c-1.18,0.05-2.57,2.02-3.31,0.35
		c-0.34-0.77,2.03-0.73,3.02-1.41c0.14-0.1,0.26-0.22,0.42-0.36c-0.74-0.6-1.52-0.94-2.31-1.33c-1.78-0.88-4.47-1.79-4.64-3.55
		c-0.35-3.69-3.24-5.52-4.28-8.69c-1.43,1.65-2.08,4.29-4.55,3.21c-1.98-0.86-4.41-1.78-4.03-4.91c0.07-0.59-0.26-0.8-0.68-0.99
		c-2.83-1.28-4.94-4.09-8.72-3.33c-2.41,0.48-3.27,0.69-3.02,3.38c0.08,0.91,0.5,1.89-0.33,2.54c-1.24,0.96-0.67,1.52,0.03,2.57
		c3.16,4.71,2.41,5.78-1.56,8.14c-1.43,0.85-1.56,1.17-0.77,2.72c0.93,1.82,0.4,3.83-1.6,4.85c-2.03,1.03-2.76-0.77-3.7-2.05
		c-0.75-1.01-0.93-2.15-0.72-3.36c0.32-1.88-0.51-2.6-2.25-2.78c-2.38-0.25-4.5-1.13-6.46-2.72c-1.49-1.21-3.38-1.89-5.35-2.09
		c-0.6-0.06-5.5-4.72-5.48-5.32c0.02-0.53,0.13-1.09,0.32-1.58c0.49-1.28,1.27-2.36,2.22-3.36c1.34-1.41,3.23-2.34,4.31-3.72
		c1.26-1.62,1.95-3.33,4.34-2.9c0.54,0.1,1.09-0.18,1.1-0.88c0.01-0.7-0.53-0.83-1.08-0.94c-0.89-0.17-1.89,0.23-2.74-0.42
		c0.87-1.38,2.07-1.04,3.19-1.08c0.79-0.03,1.48,0.69,2.29,0.3c0.48-0.23,4.79-1.81,5-1.95c1.08-0.73,3.52-0.13,3.01-2.27
		c-0.29-1.21-0.57-2.27-0.55-3.56c0.03-1.37-1.12-2.19-2.38-2.46c-1.53-0.33-1.13,0.92-1.46,1.81c-0.59,1.58-1.61,3.01-2.59,4.4
		c-0.61,0.86-1.4,0.71-2.29,0.05C378.98,266.43,380.5,264.63,380.54,262.82z M419.16,463.03c0.61-0.3,0.84,0.01,1.13,0.21
		c4.03,2.7,6.95,1.82,9.2-2.66c0.81-1.61,1.99-2.85,3.59-3.84c1.58-0.98,3.81-2.22,3.55-4.35c-0.48-3.93,1.5-5.38,4.54-6.4
		c1.41-0.47,2.65-1.55,4.08-1.86c3.26-0.71,5.71-1.95,8.05-4.92c2.57-3.27,4.51-6.33,4.67-10.51c0.05-1.35,0.26-2.83,1.38-3.38
		c2.58-1.26,3.93-3.95,6.55-5.28c2.94-1.49,2.93-6.69,0.18-7.62c-1.84-0.63-3.18-1.83-4.76-2.77c-2.89-1.73-6.16-2.07-9.38-2.21
		c-1.09-0.05-1.62-0.15-2.33-1.05c-1.99-2.54-4.4-2.91-7.15-1.33c-0.99,0.57-2.08,0.72-3.07,0.45c-2.7-0.72-5.36-1.11-8.51,0.64
		c0.83-1.24,1.37-1.78,2.07-1.87c2.42-0.31,3.54-2.58,5.39-3.74c0.63-0.39,1.2-1.31,0.9-1.84c-1.59-2.74-2.5-6.33-6.06-7.07
		c-2.94-0.62-5.94-1.17-8.99-1.09c-0.51,0.01-0.99-0.12-0.8-0.69c1.03-3.24-1.62-2.36-2.98-2.84c-0.93-0.33-1.97,0.61-3.35-0.19
		c2.58-0.93,2.29-1.59,0.27-2.46c-1.04-0.45-1.92-0.61-3.01-0.47c-2.85,0.36-5.66,0.34-8.24-1.38c-1.46-0.98-3.65,0.08-3.71,1.75
		c-0.03,1.02-0.04,2.03-1.23,1.89c-1.05-0.12-1.22-1.06-0.96-2.12c0.47-1.92-0.48-1.81-1.89-1.51c-2.55,0.54-4.16,2.52-5.44,4.37
		c-1.1,1.59-2.84,0.81-3.3,1.46c-0.85,1.19,1.09,2.44,0.84,4.31c-0.45,3.37-2.35,5.59-4.1,8.11c-1.33,1.92-3.02,4.28-1.95,6.58
		c0.6,1.29,0.41,1.65-0.27,2.26c-1.77,1.59-1.57,3.45,0,4.65c4.21,3.23,5.4,8.16,7.22,12.76c0.57,1.44,1.27,2.54,2.7,3.12
		c1.31,0.53,2.56,1.2,3.85,1.78c2.83,1.27,3.92,3.07,3.57,6.23c-0.22,1.99-0.57,3.96-0.91,5.94c-1.53,8.71-1.06,17.75-4.36,26.21
		c-0.77,1.96-0.92,5.08-0.09,6.81c0.88,1.81,1.12,3.61,0.68,4.95c-0.66,2.01,1.23,5.79-3.38,5.83c2.22,0.14,2.34,1.31,2.14,2.94
		c-0.19,1.56,0.69,2.45,2.26,2.16c2.51-0.46,5.01-0.95,7.49-1.58c1.33-0.34,1.88-1.33,0.53-2.29c-2.45-1.73-1.36-2.92,0.28-4.38
		c1.85-1.66,2.79-3.74,2.1-6.41c-0.39-1.52,0.2-2.47,1.81-1.73c1.55,0.71,2.72,0.25,2.59-1.35c-0.25-3.15,1.64-2.98,3.61-3.1
		c0.95-0.06,1.93-0.27,2.82-0.62c2.15-0.83,2.49-2.31,1.79-4.58C420.36,465.58,418.74,464.78,419.16,463.03z M403.89,240.95
		c2.8,3.37,7.13,1.34,10.04,4c-1.76,0.4-3.12-0.15-4.49-0.12c-0.76,0.02-1.79,0-1.81,1.11c-0.02,1.12,0.97,1.74,1.82,1.49
		c2.24-0.65,4.31,0.29,6.45,0.37c5.42,0.22,9.8,2.97,13.45,6.66c1.46,1.47,4.23,3.37,2.56,6.68c-0.37,0.74,0.53,0.81,1.23,0.76
		c2.19-0.15,4.4,0.88,5.83,2.04c1.73,1.41,1.81,4.44,1.9,6.79c0.14,3.62-0.11,3.63-3.62,2.99c-0.07-0.01-0.16,0.06-0.4,0.16
		c0.52,1.26-0.12,2.98,2.15,3.53c0.47,0.11,2.94,1.52,2.72,3.05c-0.26,1.78,0.62,3,1.57,3.41c2.46,1.05,3.13,4.83,6.81,4.27
		c1.17-0.18,3.5,2.5,4.51,1.97c1.31-0.7,1.73-3.15,2.56-4.84c0.27-0.55,0.77-0.89,0.95-1.58c0.64-2.48,4.35-4.35,6.55-3.43
		c1.84,0.77,6.49-0.03,7.13-1.55c0.51-1.22,0.86-0.88,1.69-0.63c2.81,0.86,5.7,1.08,8.93,1.18c-1-2.01-2.59-2.92-3.44-4.28
		c-3.16-5.04-7.26-9.05-11.59-12.95c-5.04-4.55-9.87-9.35-15.71-12.84c-5.6-3.35-10.42-8.32-17.4-8.81
		c-2.55-0.18-4.25-2.51-6.59-3.3c-5.23-1.75-10.5,0.04-15.75-0.09c-0.05,0-0.09,0.13-0.35,0.49c0.98,0.26,1.85,0.53,2.73,0.73
		c0.75,0.16,1.39,0.42,1.39,1.34c0,0.99-0.64,1.53-1.47,1.64c-0.77,0.1-1.56-0.03-2.35-0.09
		C409.39,240.93,406.9,240.54,403.89,240.95z M410.3,277.4c0.62,0.04,0.94,0.05,1.26,0.08c1.36,0.14,3.37,1.26,3.94,0.17
		c0.75-1.43-1.65-1.91-2.31-3.12c-0.04-0.08-0.12-0.13-0.19-0.19c-0.77-0.64-1.69-1.3-0.79-2.44c0.89-1.12,1.62-0.33,2.45,0.3
		c1.25,0.97,2.53,2.25,3.97,2.55c1.58,0.33,1.76-2.21,3.18-2.75c0.05-0.02,0.01-0.3,0.01-0.42c-3.23-0.27-5.83-2.14-8.5-3.72
		c-0.78-0.46-1.99-0.62-2.27-1.69c-0.94-3.6-1.05-3.8-3.88-5.08c-0.15-0.07-0.31-0.21-0.38-0.36c-1.06-2.48-5.36-1.04-5.41-4.79
		c0-0.17-0.82-0.25-1.14-0.52c-2.63-2.16-5.33,1.71-7.95-0.12c-2.92,2.17-1.83-1.1-2.18-1.92c-0.4-0.94,0.32-2.77-1.6-2.16
		c-1.12,0.35-3.7-0.03-2.39,2.86c0.23,0.51-0.2,1.32-0.29,2c-0.09,0.72-0.32,1.16-1.16,1.13c-0.85-0.03-0.9-0.52-1.04-1.22
		c-0.4-1.92-0.55-3.73,1.07-5.28c-2.71-0.19-5.81,1.49-6.2,3.62c-0.34,1.82,1.54,1.8,2.58,2.43c0.14,0.09,0.25,0.25,0.35,0.39
		c1.59,2.18,4.99,3.27,7.37,2.88c3.87-0.64,7.78-1.12,11.28,1.61c1.17,0.91,0.88,2.64,3.05,3.37c2.39,0.81,2.14,3.54,0.42,6.14
		c-0.25,0.38-0.7,0.73-0.4,1.19c1.93,3.03-0.63,2.19-1.93,2.42c-0.87,0.15-1.74,0.27-2.61,0.37c-0.7,0.08-1.5,0.03-1.62,1
		c-0.04,0.29,0.15,0.74,0.38,0.92c0.66,0.55,1.37,0.29,1.95-0.16c2.1-1.66,3.81-0.84,5.21,0.97c2.4,3.12,5.68,2.81,9.47,3.03
		C412.58,279.51,410.92,279.37,410.3,277.4z M399.82,239.18c-1.69-0.18-2.66-0.19-3.56-0.43c-0.57-0.15-1.14-1.25-0.54-1.31
		c1.37-0.15,2.32-2.04,4.03-0.86c0.82,0.57,2.13,0.87,3.06,0.33c1.93-1.12,4.06-0.99,6.08-1.49c2.84-0.71,5.72-1.19,8.63-1.59
		c-2.87-3.38-6.63-2.8-10.27-2.64c0.34-1.29,1.27-0.77,1.56-1.21c-2.67-1.29-5.66-0.69-8.4-1.32c-2.24-0.51-4.52,1.18-6.58-0.48
		c-0.05-0.04-0.19-0.03-0.26,0c-2.35,1.2-4.58,0.68-6.77-0.5c-0.93-0.5-1.35-0.43-1.58,0.1c-0.59,1.4-0.57,1.28-1.91,1.03
		c-1.15-0.22-3.15-2.41-3.14,1.13c0,0.14-0.82,0.29-1.33,0.46c5.38,0.75,10.66,1.16,15.96,1.26c0.79,0.01,2.2-0.42,2.15,0.74
		c-0.04,1.03-1.31,1.59-2.49,1.42c-1.29-0.19-2.59-0.41-3.84-0.05c-0.46,0.86,1.31,0.86,0.55,1.78c-0.92,0.22-1.57-0.26-2.07-0.92
		c-1.45-1.92-3.1-2.55-5.15-1.01c-0.41,0.31-0.86,0.44-1.12-0.06c-0.82-1.58-2.31-1.01-3.54-1.25c-1.28-0.24-2.67-0.14-3.39-1.66
		c-0.51-1.09-1.32-1.7-2.57-1.31c0.59,0.98-0.92,1.95,0.13,3.06c1.05,1.11-1.04,0.43-0.8,1.33c1.05,0.48,2.16,0.99,3.41,1.56
		c-0.2,0.6-1.38,0.75-0.84,1.71c0.5,0.88,1.21,0.8,2.05,0.78c1.38-0.04,2.53-0.63,3.75-1.15c4.56-1.97,5.61-1.8,7.68,1.11
		c-2.04,0.02-4.01-0.91-6.1,0.03c0.88,0.72,1.66,0.39,2.41,0.38c1.58-0.01,1.61,1.98,2.86,2.39c-0.09,0.23-0.12,0.62-0.27,0.68
		c-1.11,0.43-2.02-0.07-2.92-0.73c-0.7-0.52-2.27-1.11-2.24-0.67c0.14,2.08-1.9,1.52-2.54,2.45c0.39,0.7,0.95,0.54,1.43,0.68
		c2.96,0.89,6.04-1.48,8.8,0.14c1.65,0.96,2.96,1.25,4.82,0.37c-0.84-0.61-1.48-1.08-2.03-1.48
		C394.94,240.75,397.34,241.06,399.82,239.18z M350.92,255.39c-0.25-0.84,0.85-3.15-0.43-2.7c-1.54,0.54-3.74-1.21-4.78,1.46
		c-0.48,1.22-1.45,0.15-2.08-0.45c-0.64-0.61,0.25-1.63-0.53-2.2c-2.43,1.34-5.43,1.83-6.45,5c1.44,1.23,3.11-0.34,4.76,0.19
		c-0.36,1.25-1.74,0.97-2.22,1.9c2.31,0.38,4.61-0.72,7.09-0.03c-0.66,1.48-1.71,1.71-2.88,1.84c-1.21,0.14-2.42,0.38-3.62,0.63
		c-0.91,0.19-1.36,1.16-0.49,1.41c1.62,0.46,2.84,2.16,4.46,1.95c2.95-0.38,5.92-1,8.54-2.59c1.14-0.69,1.87-1.1,3.07,0.17
		c1.3,1.38,2.21,0.92,2.47-0.81c0.07-0.46,0.39-0.51,0.75-0.57c0.75-0.14,1.5-0.31,2.6-0.54c-2.75-0.69-4.79-1.73-5.64-4.41
		c-0.49-1.55-1.63-1.43-2.79-0.84C352.23,255.05,351.94,255.82,350.92,255.39z M340.71,250.62c-2.42-0.79-4.84-1.07-7.18-1.29
		c-2.66-0.24-5.79,4.76-5.1,7.53c0.15,0.6,0.8,1.53,1.14,1.29c1.54-1.09,3.84-0.44,4.96-2.06
		C336.15,253.75,338.17,252.04,340.71,250.62z M370.63,241.41c0.4,1.12,1.27,1.19,2.12,1.29c1.01,0.11,2.35,0.52,2.37,1.41
		c0.08,3.83,2.2,4.11,5.03,3.53c0.21-0.04,0.46,0.29,0.71,0.32c3.13,0.32,6.3,0.08,9.42,0.66c0.72,0.14,1.47-0.13,1.69-0.97
		c0.26-1.02-0.59-1.18-1.24-1.39c-1.84-0.62-3.67-1.14-5.66-0.73c-2.78,0.58-6.02,0.45-7.79-1.43
		C375.22,241.91,372.85,242.24,370.63,241.41z M359.8,253.01c1.68,0.52,2.99,1.58,4.38,2.51c1.66,1.11,2.98-0.14,3.93-1.06
		c1.27-1.24-0.59-1.45-1.11-2.06c-0.4-0.47-1.14-0.81-0.66-1.55c1.1-1.7-0.66-0.97-0.86-0.94c-1.03,0.13-3.15-0.24-2.89,0.71
		C363.59,254.37,361.08,252.59,359.8,253.01z"/>
</g>
</svg>
