<?xml version="1.0" encoding="utf-8"?>
<!-- Generator: Adobe Illustrator 23.0.1, SVG Export Plug-In . SVG Version: 6.00 Build 0)  -->
<svg version="1.1" id="Layer_1" xmlns="http://www.w3.org/2000/svg" xmlns:xlink="http://www.w3.org/1999/xlink" x="0px" y="0px"
	 viewBox="0 0 720 720" style="enable-background:new 0 0 720 720;" xml:space="preserve">
<style type="text/css">
	.st0{fill:none;}
	.st1{fill:#4B5B9C;}
	.st2{font-family:'SukhumvitSet-SemiBold';}
	.st3{font-size:57.4508px;}
	.st4{letter-spacing:-1;}
	.st5{display:none;}
	.st6{display:inline;}
</style>
<path class="st0" d="M441.96,126.16v39.81c58.81,23.96,100.27,81.69,100.27,149.11c0,88.9-72.06,160.96-160.96,160.96
	s-160.96-72.06-160.96-160.96s72.06-160.96,160.96-160.96c11.06,0,21.86,1.12,32.3,3.24v-38.05c-10.51-1.72-21.3-2.63-32.3-2.63
	c-109.57,0-198.39,88.82-198.39,198.39s88.82,198.39,198.39,198.39s198.39-88.82,198.39-198.39
	C579.67,226.68,521.85,151.8,441.96,126.16z"/>
<path class="st0" d="M441.96,195.43c-18.22-9.26-38.85-14.48-60.69-14.48c-74.08,0-134.13,60.05-134.13,134.13
	s60.05,134.13,134.13,134.13s134.13-60.05,134.13-134.13c0-50.75-28.18-94.92-69.75-117.7"/>
<path class="st0" d="M445.65,197.38c-1.22-0.67-2.45-1.32-3.69-1.95"/>
<g>
	<path class="st1" d="M247.92,315.08c0-74.08,60.05-134.13,134.13-134.13c21.53,0,41.88,5.08,59.91,14.1v-18.65h-27.61v-19.04
		c-10.44-2.13-21.24-3.24-32.3-3.24c-88.9,0-160.96,72.06-160.96,160.96s72.06,160.96,160.96,160.96c21.18,0,41.39-4.1,59.91-11.53
		v-29.4c-18.03,9.02-38.38,14.1-59.91,14.1C307.97,449.22,247.92,389.16,247.92,315.08z"/>
	<path class="st1" d="M247.92,315.08c0-74.08,60.05-134.13,134.13-134.13c21.53,0,41.88,5.08,59.91,14.1v-18.65h-27.61v-19.04
		c-10.44-2.13-21.24-3.24-32.3-3.24c-88.9,0-160.96,72.06-160.96,160.96s72.06,160.96,160.96,160.96c21.18,0,41.39-4.1,59.91-11.53
		v-29.4c-18.03,9.02-38.38,14.1-59.91,14.1C307.97,449.22,247.92,389.16,247.92,315.08z"/>
	<path class="st1" d="M247.92,315.08c0-74.08,60.05-134.13,134.13-134.13c21.53,0,41.88,5.08,59.91,14.1v-18.65h-27.61v-19.04
		c-10.44-2.13-21.24-3.24-32.3-3.24c-88.9,0-160.96,72.06-160.96,160.96s72.06,160.96,160.96,160.96c21.18,0,41.39-4.1,59.91-11.53
		v-29.4c-18.03,9.02-38.38,14.1-59.91,14.1C307.97,449.22,247.92,389.16,247.92,315.08z"/>
	<path class="st1" d="M247.92,315.08c0-74.08,60.05-134.13,134.13-134.13c21.53,0,41.88,5.08,59.91,14.1v-18.65h-27.61v-19.04
		c-10.44-2.13-21.24-3.24-32.3-3.24c-88.9,0-160.96,72.06-160.96,160.96s72.06,160.96,160.96,160.96c21.18,0,41.39-4.1,59.91-11.53
		v-29.4c-18.03,9.02-38.38,14.1-59.91,14.1C307.97,449.22,247.92,389.16,247.92,315.08z"/>
	<path class="st1" d="M247.92,315.08c0-74.08,60.05-134.13,134.13-134.13c21.53,0,41.88,5.08,59.91,14.1v-18.65h-27.61v-19.04
		c-10.44-2.13-21.24-3.24-32.3-3.24c-88.9,0-160.96,72.06-160.96,160.96s72.06,160.96,160.96,160.96c21.18,0,41.39-4.1,59.91-11.53
		v-29.4c-18.03,9.02-38.38,14.1-59.91,14.1C307.97,449.22,247.92,389.16,247.92,315.08z"/>
	<path d="M247.92,315.08c0-74.08,60.05-134.13,134.13-134.13c21.53,0,41.88,5.08,59.91,14.1v-18.65h-27.61v-19.04
		c-10.44-2.13-21.24-3.24-32.3-3.24c-88.9,0-160.96,72.06-160.96,160.96s72.06,160.96,160.96,160.96c21.18,0,41.39-4.1,59.91-11.53
		v-29.4c-18.03,9.02-38.38,14.1-59.91,14.1C307.97,449.22,247.92,389.16,247.92,315.08z"/>
</g>
<path d="M441.96,175.64v-9.67v-39.81V79.3c-19.4-4.98-39.73-7.63-60.69-7.63c-134.43,0-243.41,108.98-243.41,243.41
	S246.84,558.5,381.27,558.5c20.95,0,41.29-2.65,60.69-7.63v-46.86c-19.13,6.14-39.52,9.47-60.69,9.47
	c-109.57,0-198.39-88.82-198.39-198.39s88.82-198.39,198.39-198.39c11,0,21.79,0.91,32.3,2.63v38.05v19.04h28.39V175.64"/>
<g>
	<path d="M389.1,425.1c-22.13-0.03-39.98-4.57-56.69-13.94c-8.37-4.7-15.99-10.39-22.97-17.13c-9.95-9.61-17.62-20.78-23.61-33.42
		c-5.34-11.28-8.17-23.12-9.29-35.5c-1.61-17.9,0.64-35.28,7.53-51.79c3.15-7.55,6.89-14.91,11.73-21.52
		c6.61-9.03,14.13-17.22,22.97-23.92c14.75-11.18,31.15-18.5,49.28-21.35c21.58-3.4,42.5-0.94,62.62,8
		c9.63,4.28,18.49,9.85,26.6,16.8c9.33,7.99,17.05,17.29,23.52,27.9c5.42,8.9,8.71,18.56,11.75,28.47
		c3.5,11.39,3.82,23.02,3.43,34.74c-0.19,5.49-0.87,11-2.31,16.3c-2.74,10.05-5.66,20.11-10.92,29.1c-3.48,5.95-7,11.97-11.56,17.15
		c-3.62,4.11-7.28,8.26-11.36,11.85c-15.08,13.26-32.26,22.17-51.77,26.07C400.75,424.36,393.39,425.23,389.1,425.1z M390.58,239.89
		c-1.09,0.15-0.88,1.13-1.44,1.42c-0.44,0.22-0.86,0.94-1.36,0.2c-0.34-0.51-0.43-1.22-0.82-1.68c-0.49-0.58-1.2-1.1-1.97-0.79
		c-0.65,0.26-1.36,0.64-1.01,1.72c0.18,0.57-0.53,0.71-0.88,1.01c-0.46,0.4-0.9,0.85-1.35,1.27c-0.4,0.38,0.45,1.35-0.47,1.34
		c-0.82,0-1.21-0.7-1.36-1.58c-0.1-0.61-0.52-1.32-1.26-0.76c-2.75,2.1-5.54,0.79-8.25,0.05c-1.49-0.4-3.3,0.31-3.5,1.93
		c-0.07,0.57,0.09,1.18-0.65,1.33c-0.68,0.14-1.01-0.43-1.25-0.9c-0.7-1.36-1.68-1.42-2.91-0.9c-0.5,0.21-1.05,0.33-1.59,0.36
		c-0.9,0.04-1.98,0.14-1.35-1.43c0.26-0.64,0.1-0.99-0.61-0.84c-1.65,0.35-3.08-0.51-4.53-0.98c-1.37-0.45-2.56-0.74-3.89,0.09
		c-0.89,0.55-1.78,0.36-2.56-0.49c-0.64-0.7-1.43-1.25-2.15-1.86c-1.63,2.82-4.88,3.17-7.15,6.1c0.44-2.37-0.21-3.1-1.29-1.77
		c-1.24,1.52-2.36,0.85-3.6,0.39c-0.85-0.31-1.7-0.43-2.6-0.44c-5.16-0.06-10.22,1.02-15.34,1.31c-1.07,0.06-2.25-0.13-3.2,0.26
		c-4.07,1.62-7.58,4.05-9.84,8.09c-0.43,0.77-0.41,0.95,0.48,1.24c1.59,0.51,1,1.39,0.03,1.98c-0.62,0.38-1.4,0.57-2.13,0.67
		c-0.98,0.14-1.99,0.59-1.76,1.57c0.2,0.84,1.26,0.26,1.96,0.1c0.5-0.11,1.13-0.63,1.5-0.04c0.36,0.57-0.09,1.21-0.37,1.77
		c-0.27,0.53-0.82,0.68-1.31,0.95c-1.52,0.83-3.36,0.94-4.64,2.28c-0.51,0.54-1.74,1.16-1.43,1.55c0.54,0.69,1.11,1.18,1.48,2.11
		c0.25,0.64,1.07-0.8,1.84-0.68c0.44,1.68,0.46,1.5,1.98,1.66c1.43,0.16,2.78-0.04,4.57-0.53c-1.13,1.56-1.99,2.75-2.85,3.95
		c1.99-1.23,4.25-2.35,5.49-4.19c1.7-2.54,4.14-3.91,6.32-5.71c0.35-0.29,1.03-0.52,1.27,0.01c0.34,0.73-0.35,0.93-0.88,1.08
		c-1.26,0.37-1.72,1.25-1.63,2.53c1.21-1.03,3.15-1.13,3.75-2.61c0.58-1.44,1.69-1.54,2.4-1.11c2.3,1.39,4.75,0.98,7.17,1.15
		c1.21,0.09,2.45,0.15,3.05,1.63c0.18,0.45,0.84,0.94,1.33,0.59c1.95-1.4,3.3-1.04,4.14,1.31c0.33,0.91,1.04,1.46,1.57,2.19
		c0.75,1.04,2.34,1.79,1.24,3.57c-0.14,0.23-0.04,0.91,0.33,0.85c1.17-0.18,0.77,0.84,1.08,1.33c0.86,1.34,0.83,3.38,3.42,3.25
		c1.41-0.07,3.36,0.92,3.47,3.2c0.03,0.67,0.17,1.39-0.9,1.07c-1.56-0.47-2.64-0.4-1.85,1.79c0.1,0.29-0.06,0.69-0.13,1.03
		c-0.59,3.1-1.15,6.2-1.29,9.36c-0.05,1.3-0.03,2.71,1.21,3.33c1.1,0.55,1.17,1.4,1.32,2.37c0.25,1.65,0.79,3.04,2.63,3.52
		c1.22,0.32,2.06,1.19,2.53,2.54c0.38,1.1,0.57,2.46,2.08,3.16c0.2-0.96-0.72-2.27,0.88-2.45c1.33-0.15,1.58,0.74,1.88,1.72
		c0.19,0.62,0.63,1.06,1.09,1.5c2.54,2.51,4.19,5.77,6.51,8.48c0.94,1.09,1.68,2.43,1.02,4.07c-0.33,0.83,0.32,1.24,0.84,1.73
		c1.73,1.62,3.96,2.13,6.06,2.88c2.07,0.74,4.17,1.15,6.41,0.5c1.22-0.36,2.4,0.2,3.35,1.14c1.21,1.22,2.65,2.08,4.35,2.09
		c1.62,0,2.87,0.74,4.03,1.71c0.52,0.44,1.99,0.91,0.25,1.86c-0.41,0.22-0.32,0.92,0.37,1.07c1.17,0.26,2.03,1.06,2.99,1.73
		c1.94,1.36,2.98,1.15,3.75-0.64c-1.85,1.02-2.97,0.09-4.07-1.28c-1.17-1.47-0.56-2.94-0.26-4.43c0.49-2.43-0.33-3.38-2.72-3.11
		c-0.88,0.1-1.75,0.27-2.63,0.35c-1.07,0.1-1.38-0.24-1.09-1.48c0.46-1.98,1.39-3.76,1.96-5.68c0.21-0.71,0.33-1.43-0.65-1.19
		c-1.02,0.25-2.32,0.45-2.69,1.66c-0.61,1.98-1.87,2.79-3.73,3.36c-3.09,0.95-6.4-1.08-6.72-4.47c-0.28-2.92,1.11-5.66,0.89-8.58
		c-0.02-0.29,0.24-0.7,0.48-0.9c2.45-2.05,4.94-4.16,8.4-2.87c0.89,0.33,1.3-0.56,2.01-0.44c-0.1-1.71,1.22-1,1.97-1.25
		c1.83-0.59,3.44,0.78,5.13,0.68c1.59-0.09,2.02,0.66,2.45,1.86c0.38,1.04,0.29,2.24,0.99,3.16c0.28,0.36,0.42,1.05,1.03,0.78
		c0.46-0.2,0.61-0.81,0.52-1.29c-0.21-1.1-0.51-2.19-0.81-3.28c-0.68-2.51-0.25-3.94,1.77-5.53c0.86-0.68,1.83-1.22,2.69-1.9
		c1.5-1.19,2.92-2.35,2.14-4.8c-0.38-1.2-0.24-3.54,0.93-3.47c2.49,0.16,3.03-1.79,4.48-2.84c1.49-1.08,3.18-1.73,4.05-3.55
		c0.1-0.21,0.42-0.43,0.66-0.44c2.15-0.15,3.61-1.96,5.6-2.48c0.72-0.19,1.31-0.76,1.33-1.43c0.02-0.63,0.01-1.4-0.99-1.78
		c-1.01-0.39-0.73-0.93,0.3-1.11c0.51-0.09,1.16-0.43,0.99-1.1c-0.17-0.66-0.89-0.54-1.42-0.52c-1.35,0.05-2.47,0.73-3.56,1.48
		c-1.1,0.76-2.2,1.51-3.29,2.27c2.36-3.4,5-6.25,9.49-5.66c1.21,0.16,2.44,0.12,3.67,0.19c0.83,0.05,1.7,0.08,2.32-0.56
		c0.92-0.94,1.96-1.44,3.24-1.54c0.52-0.04,1.11-0.28,1.19-0.97c0.07-0.7-0.54-0.92-0.97-1.24c-0.6-0.45-1.29-0.3-1.97-0.27
		c-0.91,0.04-1.99,1.56-2.56,0.27c-0.27-0.6,1.57-0.56,2.34-1.09c0.11-0.07,0.2-0.17,0.32-0.28c-0.57-0.46-1.17-0.73-1.79-1.03
		c-1.38-0.68-3.46-1.38-3.59-2.75c-0.27-2.86-2.51-4.27-3.31-6.73c-1.1,1.28-1.61,3.32-3.52,2.49c-1.53-0.67-3.42-1.38-3.12-3.8
		c0.06-0.45-0.2-0.62-0.53-0.77c-2.19-0.99-3.82-3.16-6.74-2.57c-1.86,0.37-2.53,0.54-2.34,2.62c0.07,0.7,0.39,1.46-0.26,1.96
		c-0.96,0.75-0.52,1.17,0.02,1.99c2.45,3.65,1.86,4.47-1.21,6.3c-1.1,0.66-1.21,0.91-0.59,2.11c0.72,1.41,0.31,2.96-1.24,3.75
		c-1.57,0.8-2.13-0.6-2.86-1.59c-0.58-0.78-0.72-1.66-0.56-2.6c0.25-1.45-0.39-2.01-1.74-2.15c-1.84-0.19-3.48-0.88-5-2.1
		c-1.15-0.93-2.62-1.46-4.14-1.62c-0.46-0.05-4.26-3.65-4.24-4.12c0.01-0.41,0.1-0.84,0.25-1.22c0.38-0.99,0.98-1.83,1.72-2.6
		c1.04-1.09,2.5-1.81,3.34-2.88c0.98-1.25,1.51-2.58,3.36-2.25c0.42,0.07,0.84-0.14,0.85-0.68c0.01-0.54-0.41-0.64-0.84-0.72
		c-0.69-0.13-1.46,0.18-2.12-0.32c0.67-1.07,1.6-0.81,2.47-0.84c0.61-0.02,1.15,0.54,1.77,0.23c0.37-0.18,3.7-1.4,3.86-1.51
		c0.84-0.56,2.72-0.1,2.33-1.76c-0.22-0.94-0.44-1.76-0.42-2.75c0.02-1.06-0.86-1.69-1.84-1.91c-1.18-0.26-0.87,0.71-1.13,1.4
		c-0.46,1.22-1.24,2.33-2.01,3.4c-0.48,0.67-1.08,0.55-1.77,0.04C389.37,242.68,390.55,241.29,390.58,239.89z M420.47,394.8
		c0.47-0.24,0.65,0.01,0.87,0.16c3.12,2.09,5.38,1.41,7.12-2.05c0.63-1.25,1.54-2.2,2.78-2.97c1.22-0.76,2.95-1.72,2.75-3.37
		c-0.37-3.04,1.16-4.16,3.51-4.95c1.09-0.37,2.05-1.2,3.15-1.44c2.52-0.55,4.42-1.51,6.23-3.8c1.99-2.53,3.49-4.9,3.61-8.13
		c0.04-1.04,0.2-2.19,1.07-2.61c2-0.97,3.04-3.06,5.07-4.08c2.28-1.15,2.27-5.17,0.14-5.9c-1.42-0.49-2.46-1.42-3.68-2.14
		c-2.24-1.34-4.76-1.6-7.26-1.71c-0.84-0.04-1.25-0.11-1.8-0.81c-1.54-1.97-3.41-2.25-5.53-1.03c-0.76,0.44-1.61,0.55-2.38,0.35
		c-2.09-0.56-4.15-0.86-6.58,0.5c0.64-0.96,1.06-1.38,1.6-1.45c1.87-0.24,2.74-2,4.17-2.89c0.48-0.3,0.93-1.02,0.69-1.42
		c-1.23-2.12-1.93-4.9-4.69-5.47c-2.28-0.48-4.6-0.91-6.95-0.85c-0.4,0.01-0.76-0.09-0.62-0.53c0.8-2.51-1.25-1.83-2.3-2.19
		c-0.72-0.25-1.53,0.47-2.59-0.15c2-0.72,1.77-1.23,0.21-1.91c-0.8-0.35-1.49-0.47-2.33-0.36c-2.21,0.28-4.38,0.27-6.38-1.07
		c-1.13-0.76-2.83,0.06-2.87,1.35c-0.03,0.79-0.03,1.57-0.95,1.46c-0.81-0.1-0.95-0.82-0.74-1.64c0.37-1.49-0.37-1.4-1.46-1.17
		c-1.97,0.42-3.22,1.95-4.21,3.38c-0.85,1.23-2.2,0.62-2.56,1.13c-0.66,0.92,0.84,1.89,0.65,3.33c-0.35,2.61-1.81,4.33-3.17,6.28
		c-1.03,1.49-2.34,3.31-1.51,5.09c0.47,1,0.32,1.28-0.21,1.75c-1.37,1.23-1.22,2.67,0,3.6c3.26,2.5,4.18,6.32,5.58,9.87
		c0.44,1.12,0.98,1.97,2.09,2.42c1.01,0.41,1.98,0.93,2.98,1.38c2.19,0.98,3.03,2.38,2.76,4.82c-0.17,1.54-0.44,3.07-0.71,4.59
		c-1.19,6.74-0.82,13.73-3.37,20.28c-0.59,1.52-0.71,3.93-0.07,5.27c0.68,1.4,0.87,2.79,0.53,3.83c-0.51,1.56,0.95,4.48-2.62,4.51
		c1.72,0.11,1.81,1.02,1.66,2.27c-0.15,1.21,0.53,1.89,1.75,1.67c1.94-0.36,3.88-0.74,5.79-1.22c1.03-0.26,1.46-1.03,0.41-1.77
		c-1.89-1.34-1.05-2.26,0.21-3.39c1.43-1.28,2.16-2.89,1.62-4.96c-0.3-1.17,0.15-1.91,1.4-1.34c1.2,0.55,2.1,0.19,2-1.04
		c-0.2-2.44,1.27-2.31,2.79-2.4c0.74-0.05,1.49-0.21,2.19-0.48c1.66-0.64,1.93-1.79,1.39-3.55
		C421.39,396.77,420.14,396.16,420.47,394.8z M408.65,222.97c2.17,2.61,5.52,1.04,7.77,3.1c-1.36,0.31-2.41-0.11-3.48-0.09
		c-0.59,0.01-1.38,0-1.4,0.86c-0.02,0.87,0.75,1.35,1.41,1.15c1.73-0.5,3.33,0.22,4.99,0.29c4.2,0.17,7.59,2.3,10.4,5.15
		c1.13,1.14,3.28,2.61,1.98,5.17c-0.29,0.57,0.41,0.62,0.95,0.59c1.7-0.11,3.41,0.68,4.51,1.58c1.34,1.09,1.4,3.43,1.47,5.25
		c0.11,2.8-0.09,2.81-2.8,2.31c-0.06-0.01-0.12,0.05-0.31,0.12c0.4,0.97-0.09,2.31,1.66,2.73c0.36,0.09,2.28,1.17,2.11,2.36
		c-0.2,1.38,0.48,2.32,1.21,2.64c1.9,0.82,2.42,3.74,5.27,3.31c0.9-0.14,2.71,1.94,3.49,1.52c1.01-0.54,1.34-2.44,1.98-3.74
		c0.21-0.42,0.59-0.69,0.73-1.22c0.5-1.92,3.36-3.37,5.07-2.66c1.42,0.59,5.03-0.02,5.52-1.2c0.39-0.94,0.67-0.68,1.31-0.49
		c2.18,0.67,4.41,0.84,6.91,0.92c-0.77-1.55-2-2.26-2.66-3.31c-2.44-3.9-5.62-7.01-8.96-10.02c-3.9-3.52-7.64-7.24-12.16-9.94
		c-4.34-2.59-8.06-6.44-13.46-6.81c-1.97-0.14-3.28-1.94-5.1-2.55c-4.05-1.35-8.12,0.03-12.19-0.07c-0.04,0-0.07,0.1-0.27,0.38
		c0.76,0.2,1.43,0.41,2.11,0.56c0.58,0.13,1.07,0.32,1.08,1.04c0,0.77-0.49,1.18-1.14,1.27c-0.59,0.08-1.21-0.03-1.82-0.07
		C412.91,222.95,410.98,222.66,408.65,222.97z M413.61,251.17c0.48,0.03,0.73,0.04,0.98,0.06c1.06,0.11,2.6,0.98,3.05,0.13
		c0.58-1.11-1.28-1.48-1.79-2.41c-0.03-0.06-0.1-0.1-0.15-0.14c-0.6-0.5-1.31-1.01-0.61-1.89c0.69-0.87,1.26-0.26,1.89,0.24
		c0.97,0.75,1.96,1.74,3.07,1.97c1.23,0.26,1.36-1.71,2.46-2.13c0.04-0.01,0-0.23,0-0.32c-2.5-0.21-4.51-1.65-6.58-2.87
		c-0.6-0.36-1.54-0.48-1.76-1.31c-0.73-2.78-0.82-2.94-3-3.93c-0.12-0.05-0.24-0.16-0.29-0.28c-0.82-1.92-4.14-0.8-4.18-3.71
		c0-0.13-0.63-0.19-0.88-0.4c-2.04-1.67-4.13,1.32-6.15-0.09c-2.26,1.68-1.41-0.85-1.69-1.49c-0.31-0.72,0.25-2.14-1.24-1.68
		c-0.87,0.27-2.86-0.03-1.85,2.21c0.18,0.39-0.16,1.02-0.22,1.55c-0.07,0.56-0.25,0.9-0.9,0.87c-0.66-0.03-0.69-0.4-0.81-0.94
		c-0.31-1.48-0.42-2.89,0.83-4.09c-2.1-0.14-4.5,1.16-4.8,2.8c-0.26,1.41,1.19,1.39,1.99,1.88c0.11,0.07,0.19,0.19,0.27,0.3
		c1.23,1.69,3.86,2.53,5.71,2.23c2.99-0.49,6.02-0.87,8.73,1.24c0.91,0.71,0.68,2.04,2.36,2.61c1.85,0.62,1.66,2.74,0.33,4.75
		c-0.19,0.29-0.54,0.56-0.31,0.92c1.49,2.35-0.49,1.7-1.49,1.87c-0.67,0.12-1.34,0.21-2.02,0.29c-0.54,0.06-1.16,0.02-1.25,0.78
		c-0.03,0.23,0.12,0.57,0.29,0.72c0.51,0.42,1.06,0.23,1.51-0.13c1.62-1.29,2.95-0.65,4.03,0.75c1.85,2.41,4.39,2.18,7.33,2.35
		C415.38,252.8,414.09,252.7,413.61,251.17z M405.5,221.6c-1.31-0.14-2.06-0.14-2.76-0.33c-0.44-0.12-0.88-0.96-0.42-1.01
		c1.06-0.12,1.8-1.58,3.12-0.66c0.63,0.44,1.65,0.67,2.37,0.26c1.49-0.87,3.14-0.76,4.7-1.15c2.2-0.55,4.42-0.92,6.68-1.23
		c-2.22-2.62-5.13-2.16-7.95-2.05c0.27-1,0.98-0.59,1.21-0.93c-2.07-1-4.38-0.53-6.5-1.02c-1.73-0.4-3.5,0.91-5.09-0.37
		c-0.04-0.03-0.14-0.03-0.2,0c-1.82,0.93-3.54,0.53-5.24-0.39c-0.72-0.39-1.05-0.34-1.22,0.08c-0.46,1.09-0.44,0.99-1.48,0.8
		c-0.89-0.17-2.43-1.86-2.43,0.87c0,0.11-0.63,0.22-1.03,0.35c4.16,0.58,8.25,0.9,12.35,0.97c0.61,0.01,1.7-0.33,1.67,0.57
		c-0.03,0.8-1.01,1.23-1.93,1.1c-1-0.15-2-0.32-2.97-0.04c-0.35,0.66,1.01,0.66,0.42,1.37c-0.71,0.17-1.21-0.2-1.6-0.71
		c-1.12-1.48-2.4-1.97-3.99-0.78c-0.32,0.24-0.66,0.34-0.86-0.05c-0.63-1.22-1.79-0.78-2.74-0.97c-0.99-0.19-2.07-0.11-2.62-1.28
		c-0.4-0.84-1.02-1.31-1.99-1.01c0.45,0.75-0.71,1.51,0.1,2.37c0.81,0.86-0.8,0.33-0.62,1.03c0.81,0.37,1.67,0.77,2.63,1.21
		c-0.15,0.46-1.07,0.58-0.65,1.32c0.39,0.68,0.94,0.62,1.59,0.6c1.06-0.03,1.96-0.48,2.9-0.89c3.53-1.52,4.34-1.39,5.94,0.86
		c-1.57,0.02-3.11-0.7-4.72,0.03c0.68,0.56,1.29,0.3,1.87,0.3c1.22-0.01,1.24,1.53,2.21,1.85c-0.07,0.18-0.09,0.48-0.21,0.52
		c-0.86,0.33-1.57-0.06-2.26-0.57c-0.54-0.4-1.76-0.86-1.73-0.52c0.1,1.61-1.47,1.18-1.97,1.89c0.31,0.54,0.73,0.41,1.11,0.53
		c2.29,0.69,4.68-1.14,6.81,0.11c1.28,0.75,2.29,0.97,3.73,0.28c-0.65-0.48-1.15-0.84-1.57-1.14
		C401.72,222.81,403.58,223.05,405.5,221.6z M367.67,234.14c-0.2-0.65,0.66-2.44-0.33-2.09c-1.19,0.42-2.89-0.94-3.7,1.13
		c-0.37,0.94-1.12,0.12-1.61-0.35c-0.49-0.47,0.19-1.26-0.41-1.7c-1.88,1.04-4.2,1.42-4.99,3.87c1.11,0.95,2.4-0.26,3.68,0.15
		c-0.28,0.96-1.34,0.75-1.71,1.47c1.79,0.3,3.57-0.56,5.48-0.03c-0.51,1.14-1.33,1.32-2.23,1.43c-0.94,0.11-1.87,0.3-2.8,0.49
		c-0.71,0.15-1.05,0.89-0.38,1.09c1.25,0.36,2.19,1.67,3.45,1.51c2.28-0.29,4.58-0.77,6.61-2c0.89-0.54,1.45-0.85,2.38,0.13
		c1.01,1.06,1.71,0.71,1.91-0.63c0.05-0.35,0.3-0.39,0.58-0.44c0.58-0.11,1.16-0.24,2.01-0.42c-2.13-0.54-3.7-1.34-4.36-3.41
		c-0.38-1.2-1.26-1.1-2.16-0.65C368.68,233.88,368.45,234.47,367.67,234.14z M359.77,230.45c-1.87-0.61-3.75-0.83-5.56-1
		c-2.06-0.19-4.48,3.68-3.94,5.83c0.12,0.47,0.62,1.19,0.88,1c1.19-0.84,2.97-0.34,3.83-1.59
		C356.24,232.87,357.8,231.55,359.77,230.45z M382.91,223.32c0.31,0.87,0.98,0.92,1.64,1c0.78,0.09,1.82,0.4,1.83,1.09
		c0.06,2.97,1.7,3.18,3.89,2.73c0.16-0.03,0.36,0.23,0.55,0.25c2.42,0.25,4.87,0.06,7.29,0.51c0.56,0.11,1.14-0.1,1.3-0.75
		c0.2-0.79-0.46-0.91-0.96-1.08c-1.42-0.48-2.84-0.88-4.38-0.56c-2.15,0.45-4.66,0.35-6.03-1.1
		C386.46,223.71,384.63,223.96,382.91,223.32z M374.53,232.3c1.3,0.4,2.32,1.23,3.39,1.94c1.29,0.86,2.31-0.1,3.04-0.82
		c0.99-0.96-0.46-1.12-0.86-1.6c-0.31-0.36-0.89-0.62-0.51-1.2c0.85-1.32-0.51-0.75-0.67-0.73c-0.8,0.1-2.44-0.18-2.24,0.55
		C377.46,233.35,375.52,231.97,374.53,232.3z"/>
</g>
<g>
	<g>
		<path d="M93.7,608.52c-4.52,0-8.05,1.42-10.6,4.25c-2.55,2.83-3.82,6.88-3.82,12.12c0,5.21,1.25,9.23,3.76,12.07
			c2.51,2.83,6.04,4.25,10.6,4.25c1.53,0,3.02-0.14,4.45-0.43c1.44-0.29,2.77-0.7,3.99-1.24l0.98,3.22
			c-1.38,0.65-2.82,1.15-4.34,1.49c-1.51,0.34-3.23,0.52-5.14,0.52c-3.14,0-5.85-0.48-8.13-1.44c-2.28-0.96-4.17-2.3-5.66-4.02
			s-2.6-3.81-3.33-6.26c-0.73-2.45-1.09-5.17-1.09-8.16c0-2.91,0.4-5.59,1.21-8.04c0.8-2.45,1.98-4.55,3.53-6.29
			c1.55-1.74,3.46-3.1,5.72-4.08c2.26-0.98,4.86-1.47,7.81-1.47c1.91,0,3.58,0.15,5,0.46c1.42,0.31,2.76,0.75,4.02,1.32
			c-0.15,0.54-0.32,1.07-0.49,1.61c-0.17,0.54-0.34,1.07-0.49,1.61C99.47,609.01,96.8,608.52,93.7,608.52z"/>
		<path d="M123.4,644.77c-2.95,0-5.49-0.5-7.61-1.49c-2.13-1-3.9-2.38-5.31-4.17c-1.42-1.78-2.46-3.89-3.13-6.32
			c-0.67-2.43-1.01-5.06-1.01-7.9c0-2.83,0.33-5.47,1.01-7.9c0.67-2.43,1.71-4.54,3.13-6.32c1.42-1.78,3.19-3.17,5.31-4.17
			c2.13-1,4.66-1.49,7.61-1.49c2.91,0,5.45,0.5,7.61,1.49c2.16,1,3.94,2.38,5.34,4.17c1.4,1.78,2.44,3.89,3.13,6.32
			c0.69,2.43,1.03,5.07,1.03,7.9c0,2.83-0.34,5.47-1.03,7.9c-0.69,2.43-1.73,4.54-3.13,6.32c-1.4,1.78-3.18,3.17-5.34,4.17
			C128.85,644.27,126.31,644.77,123.4,644.77z M123.4,641.55c2.22,0,4.16-0.38,5.8-1.15c1.65-0.77,3.02-1.87,4.11-3.3
			c1.09-1.44,1.9-3.19,2.44-5.26c0.54-2.07,0.8-4.39,0.8-6.95c0-2.57-0.27-4.88-0.8-6.95c-0.54-2.07-1.35-3.82-2.44-5.26
			c-1.09-1.44-2.46-2.54-4.11-3.3c-1.65-0.77-3.58-1.15-5.8-1.15c-2.22,0-4.17,0.38-5.83,1.15c-1.67,0.77-3.04,1.87-4.14,3.3
			c-1.09,1.44-1.91,3.19-2.44,5.26c-0.54,2.07-0.8,4.39-0.8,6.95c0,2.57,0.27,4.88,0.8,6.95c0.54,2.07,1.35,3.82,2.44,5.26
			c1.09,1.44,2.47,2.54,4.14,3.3C119.24,641.17,121.18,641.55,123.4,641.55z"/>
		<path d="M172.47,616.9c0,2.8-0.83,5.19-2.5,7.18c-1.67,1.99-3.94,3.37-6.81,4.14l9.48,16.03h-4.37l-9.19-15.63h-9.02v15.63h-3.91
			v-38.72h13.67c1.99,0,3.77,0.3,5.34,0.89c1.57,0.59,2.89,1.4,3.96,2.41c1.07,1.01,1.9,2.21,2.47,3.59
			C172.18,613.8,172.47,615.3,172.47,616.9z M168.5,616.9c0-2.37-0.74-4.25-2.21-5.63c-1.48-1.38-3.63-2.07-6.46-2.07h-9.77V625
			h9.42c2.8,0,5-0.73,6.61-2.18C167.7,621.37,168.5,619.39,168.5,616.9z"/>
		<path d="M198.89,631.9c0.8,1.34,1.53,2.61,2.18,3.82c0.65,1.21,1.17,2.19,1.55,2.96l0.4-0.12c-0.11-1.34-0.2-2.66-0.26-3.96
			c-0.06-1.3-0.09-2.76-0.09-4.37v-24.7h3.96v38.72h-4.37l-16.43-26.37c-0.61-0.88-1.25-1.94-1.9-3.19
			c-0.65-1.24-1.21-2.35-1.67-3.3v0.12c0-0.04-0.02-0.08-0.06-0.12c-0.04-0.04-0.06-0.08-0.06-0.11h-0.46
			c0.11,1.34,0.2,2.65,0.26,3.94s0.09,2.73,0.09,4.34v24.7h-3.96v-38.72h4.37L198.89,631.9z"/>
		<path d="M214.4,605.53h23.21v3.56h-19.25v13.39h18.1v3.56h-18.1v14.65h19.59v3.56H214.4V605.53z"/>
		<path d="M270.25,616.9c0,2.8-0.83,5.19-2.5,7.18c-1.67,1.99-3.94,3.37-6.81,4.14l9.48,16.03h-4.37l-9.19-15.63h-9.02v15.63h-3.91
			v-38.72h13.67c1.99,0,3.77,0.3,5.34,0.89c1.57,0.59,2.89,1.4,3.96,2.41c1.07,1.01,1.9,2.21,2.47,3.59
			C269.96,613.8,270.25,615.3,270.25,616.9z M266.28,616.9c0-2.37-0.74-4.25-2.21-5.63c-1.48-1.38-3.63-2.07-6.46-2.07h-9.77V625
			h9.42c2.8,0,5-0.73,6.61-2.18C265.48,621.37,266.28,619.39,266.28,616.9z"/>
		<path d="M285.3,644.77c-1.34,0-2.55-0.05-3.62-0.14c-1.07-0.1-2.04-0.24-2.9-0.43s-1.66-0.41-2.38-0.66
			c-0.73-0.25-1.4-0.55-2.01-0.89c0.15-0.54,0.32-1.07,0.52-1.61c0.19-0.54,0.36-1.05,0.52-1.55c1.15,0.54,2.49,0.98,4.02,1.32
			c1.53,0.34,3.31,0.52,5.34,0.52c1.42,0,2.74-0.13,3.96-0.4c1.23-0.27,2.27-0.7,3.13-1.29c0.86-0.59,1.54-1.35,2.04-2.27
			c0.5-0.92,0.75-2.01,0.75-3.27s-0.26-2.32-0.78-3.16s-1.22-1.57-2.1-2.18c-0.88-0.61-1.9-1.12-3.04-1.52s-2.36-0.81-3.62-1.24
			c-1.19-0.38-2.42-0.85-3.71-1.41c-1.28-0.55-2.45-1.24-3.5-2.07c-1.05-0.82-1.92-1.84-2.59-3.04c-0.67-1.21-1.01-2.67-1.01-4.39
			c0-1.42,0.24-2.75,0.72-3.99c0.48-1.24,1.24-2.31,2.27-3.19c1.03-0.88,2.35-1.58,3.94-2.1c1.59-0.52,3.51-0.78,5.77-0.78
			c1.84,0,3.52,0.16,5.06,0.49c1.53,0.33,2.95,0.81,4.25,1.47c-0.15,0.54-0.34,1.07-0.55,1.61c-0.21,0.54-0.39,1.05-0.55,1.55
			c-1.11-0.54-2.38-0.95-3.79-1.24c-1.42-0.29-2.89-0.43-4.42-0.43c-3.18,0-5.46,0.61-6.84,1.84c-1.38,1.23-2.07,2.8-2.07,4.71
			c0,1.19,0.24,2.18,0.72,2.99c0.48,0.8,1.12,1.49,1.92,2.07c0.8,0.57,1.75,1.07,2.84,1.49c1.09,0.42,2.25,0.84,3.48,1.26
			c1.38,0.46,2.75,0.97,4.11,1.52c1.36,0.56,2.58,1.25,3.65,2.1c1.07,0.84,1.94,1.89,2.61,3.13c0.67,1.25,1.01,2.77,1.01,4.57
			c0,1.8-0.33,3.36-0.98,4.68c-0.65,1.32-1.56,2.42-2.73,3.3c-1.17,0.88-2.56,1.54-4.17,1.98
			C288.98,644.55,287.21,644.77,285.3,644.77z"/>
		<path d="M316.32,609.15v35.1h-3.96v-35.1c-1.95,0-3.95,0.01-5.98,0.03c-2.03,0.02-4.02,0.03-5.97,0.03v-3.68h27.86v3.68
			L316.32,609.15z"/>
		<path d="M347.06,644.77c-2.95,0-5.49-0.5-7.61-1.49c-2.13-1-3.9-2.38-5.31-4.17c-1.42-1.78-2.46-3.89-3.13-6.32
			c-0.67-2.43-1.01-5.06-1.01-7.9c0-2.83,0.33-5.47,1.01-7.9c0.67-2.43,1.71-4.54,3.13-6.32c1.42-1.78,3.19-3.17,5.31-4.17
			c2.13-1,4.66-1.49,7.61-1.49c2.91,0,5.45,0.5,7.61,1.49c2.16,1,3.94,2.38,5.34,4.17c1.4,1.78,2.44,3.89,3.13,6.32
			c0.69,2.43,1.03,5.07,1.03,7.9c0,2.83-0.34,5.47-1.03,7.9c-0.69,2.43-1.73,4.54-3.13,6.32c-1.4,1.78-3.18,3.17-5.34,4.17
			C352.51,644.27,349.97,644.77,347.06,644.77z M347.06,641.55c2.22,0,4.16-0.38,5.8-1.15c1.65-0.77,3.02-1.87,4.11-3.3
			c1.09-1.44,1.9-3.19,2.44-5.26c0.54-2.07,0.8-4.39,0.8-6.95c0-2.57-0.27-4.88-0.8-6.95c-0.54-2.07-1.35-3.82-2.44-5.26
			c-1.09-1.44-2.46-2.54-4.11-3.3c-1.65-0.77-3.58-1.15-5.8-1.15c-2.22,0-4.17,0.38-5.83,1.15c-1.67,0.77-3.04,1.87-4.14,3.3
			c-1.09,1.44-1.91,3.19-2.44,5.26c-0.54,2.07-0.8,4.39-0.8,6.95c0,2.57,0.27,4.88,0.8,6.95c0.54,2.07,1.35,3.82,2.44,5.26
			c1.09,1.44,2.47,2.54,4.14,3.3C342.89,641.17,344.84,641.55,347.06,641.55z"/>
		<path d="M390.6,631.9c0.8,1.34,1.53,2.61,2.18,3.82c0.65,1.21,1.17,2.19,1.55,2.96l0.4-0.12c-0.12-1.34-0.2-2.66-0.26-3.96
			s-0.09-2.76-0.09-4.37v-24.7h3.96v38.72h-4.37l-16.43-26.37c-0.61-0.88-1.25-1.94-1.9-3.19c-0.65-1.24-1.21-2.35-1.67-3.3v0.12
			c0-0.04-0.02-0.08-0.06-0.12c-0.04-0.04-0.06-0.08-0.06-0.11h-0.46c0.12,1.34,0.2,2.65,0.26,3.94s0.09,2.73,0.09,4.34v24.7h-3.96
			v-38.72h4.37L390.6,631.9z"/>
		<path d="M406.12,605.53h23.21v3.56h-19.25v13.39h18.1v3.56h-18.1v14.65h19.59v3.56h-23.55V605.53z"/>
	</g>
</g>
<g>
	<g>
	</g>
</g>
<text transform="matrix(1 0 0 1 442.5826 644.2517)" class="st2 st3 st4">CHURCH</text>
<g>
	<g class="st5">
		<path class="st6" d="M509.66,620.51c-1.25,6.39-5.78,12.29-16.01,12.29c-12.71,0-17.48-8.87-17.48-20.63
			c0-10.58,5.59-20.16,17.79-20.16c10.16,0,14.74,5.79,15.49,12.37h-5.93c-1.04-4.38-3.48-7.76-9.77-7.76
			c-8.19,0-11.42,7.42-11.42,15.55c0,8.18,2.65,16.04,11.48,16.04c6.23,0,8.71-3.52,9.93-7.71H509.66z"/>
		<path class="st6" d="M515.26,592.57h5.95v16.49h19.16v-16.49h5.98v39.66h-5.98v-18.46H521.2v18.46h-5.95V592.57z"/>
		<path class="st6" d="M559.96,592.57v25.24c0,5.94,2.27,10.38,9.65,10.38c7.35,0,9.47-4.24,9.47-10.41v-25.21h6.08v25.42
			c0,8.35-3.75,14.82-15.7,14.82c-11.2,0-15.51-5.5-15.51-14.57v-25.67H559.96z"/>
		<path class="st6" d="M598.72,614.5v17.73h-5.89v-39.66h15.58c7.66,0,13.05,3.52,13.05,10.32c0,5.67-3.56,8.23-6.96,9.27
			c4.43,1.36,6.26,4.6,6.26,9.91v0.78c0,3.64,0.11,7.08,0.59,9.39h-5.84c-0.59-1.61-0.74-5.09-0.74-9.37v-0.84
			c0-5.42-2.12-7.52-8.89-7.52H598.72z M598.72,609.98h7.63c5.31,0,9.07-1.39,9.07-6.73c0-4.14-3.03-6.17-7.83-6.17h-8.88V609.98z"
			/>
		<path class="st6" d="M659.27,620.51c-1.25,6.39-5.78,12.29-16.01,12.29c-12.71,0-17.48-8.87-17.48-20.63
			c0-10.58,5.59-20.16,17.79-20.16c10.16,0,14.74,5.79,15.49,12.37h-5.93c-1.04-4.38-3.48-7.76-9.77-7.76
			c-8.19,0-11.42,7.42-11.42,15.55c0,8.18,2.65,16.04,11.48,16.04c6.23,0,8.71-3.52,9.93-7.71H659.27z"/>
		<path class="st6" d="M664.87,592.57h5.95v16.49h19.16v-16.49h5.98v39.66h-5.98v-18.46h-19.16v18.46h-5.95V592.57z"/>
	</g>
</g>
</svg>
