<?xml version="1.0" encoding="utf-8"?>
<!-- Generator: Adobe Illustrator 23.0.1, SVG Export Plug-In . SVG Version: 6.00 Build 0)  -->
<svg version="1.1" id="Layer_1" xmlns="http://www.w3.org/2000/svg" xmlns:xlink="http://www.w3.org/1999/xlink" x="0px" y="0px"
	 viewBox="0 0 720 504" style="enable-background:new 0 0 720 504;" xml:space="preserve">
<style type="text/css">
	.st0{fill:none;}
	.st1{fill:#4B5B9C;}
	.st2{font-family:'SukhumvitSet-SemiBold';}
	.st3{font-size:79.416px;}
	.st4{letter-spacing:-2;}
</style>
<path class="st0" d="M185.74,195.28c-10.07-5.18-21.47-8.1-33.54-8.1c-40.94,0-74.12,33.59-74.12,75.03s33.19,75.03,74.12,75.03
	s74.12-33.59,74.12-75.03c0-28.39-15.57-53.1-38.55-65.84"/>
<path class="st0" d="M300.66,183.6c-1.15-0.63-2.32-1.25-3.5-1.85"/>
<g>
	<path d="M152.2,126.04c-74.29,0-134.51,60.96-134.51,136.17S77.91,398.38,152.2,398.38c11.58,0,22.82-1.48,33.54-4.27V367.9
		c-10.57,3.43-21.84,5.3-33.54,5.3c-60.55,0-109.63-49.69-109.63-110.98S91.65,151.23,152.2,151.23c6.08,0,12.04,0.51,17.85,1.47
		v21.2c-5.63-1.13-11.46-1.73-17.42-1.73c-49.12,0-88.95,40.31-88.95,90.04s39.82,90.04,88.95,90.04c11.7,0,22.87-2.29,33.11-6.45
		v-16.45c-9.97,5.05-21.21,7.89-33.11,7.89c-40.94,0-74.12-33.59-74.12-75.03c0-41.44,33.19-75.03,74.12-75.03
		c11.9,0,23.14,2.84,33.11,7.89v-10.43v-0.43v-5.41v-22.27v-26.21C175.02,127.53,163.78,126.04,152.2,126.04z"/>
	<path class="st1" d="M152.2,126.04c-74.29,0-134.51,60.96-134.51,136.17S77.91,398.38,152.2,398.38c11.58,0,22.82-1.48,33.54-4.27
		V367.9c-10.57,3.43-21.84,5.3-33.54,5.3c-60.55,0-109.63-49.69-109.63-110.98S91.65,151.23,152.2,151.23
		c6.08,0,12.04,0.51,17.85,1.47v21.2c-5.63-1.13-11.46-1.73-17.42-1.73c-49.12,0-88.95,40.31-88.95,90.04s39.82,90.04,88.95,90.04
		c11.7,0,22.87-2.29,33.11-6.45v-16.45c-9.97,5.05-21.21,7.89-33.11,7.89c-40.94,0-74.12-33.59-74.12-75.03
		c0-41.44,33.19-75.03,74.12-75.03c11.9,0,23.14,2.84,33.11,7.89v-10.43v-0.43v-5.41v-22.27v-26.21
		C175.02,127.53,163.78,126.04,152.2,126.04z"/>
	<path class="st1" d="M152.2,126.04c-74.29,0-134.51,60.96-134.51,136.17S77.91,398.38,152.2,398.38c11.58,0,22.82-1.48,33.54-4.27
		V367.9c-10.57,3.43-21.84,5.3-33.54,5.3c-60.55,0-109.63-49.69-109.63-110.98S91.65,151.23,152.2,151.23
		c6.08,0,12.04,0.51,17.85,1.47v21.2c-5.63-1.13-11.46-1.73-17.42-1.73c-49.12,0-88.95,40.31-88.95,90.04s39.82,90.04,88.95,90.04
		c11.7,0,22.87-2.29,33.11-6.45v-16.45c-9.97,5.05-21.21,7.89-33.11,7.89c-40.94,0-74.12-33.59-74.12-75.03
		c0-41.44,33.19-75.03,74.12-75.03c11.9,0,23.14,2.84,33.11,7.89v-10.43v-0.43v-5.41v-22.27v-26.21
		C175.02,127.53,163.78,126.04,152.2,126.04z"/>
	<path class="st1" d="M152.2,126.04c-74.29,0-134.51,60.96-134.51,136.17S77.91,398.38,152.2,398.38c11.58,0,22.82-1.48,33.54-4.27
		V367.9c-10.57,3.43-21.84,5.3-33.54,5.3c-60.55,0-109.63-49.69-109.63-110.98S91.65,151.23,152.2,151.23
		c6.08,0,12.04,0.51,17.85,1.47v21.2c-5.63-1.13-11.46-1.73-17.42-1.73c-49.12,0-88.95,40.31-88.95,90.04s39.82,90.04,88.95,90.04
		c11.7,0,22.87-2.29,33.11-6.45v-16.45c-9.97,5.05-21.21,7.89-33.11,7.89c-40.94,0-74.12-33.59-74.12-75.03
		c0-41.44,33.19-75.03,74.12-75.03c11.9,0,23.14,2.84,33.11,7.89v-10.43v-0.43v-5.41v-22.27v-26.21
		C175.02,127.53,163.78,126.04,152.2,126.04z"/>
	<path class="st1" d="M152.2,126.04c-74.29,0-134.51,60.96-134.51,136.17S77.91,398.38,152.2,398.38c11.58,0,22.82-1.48,33.54-4.27
		V367.9c-10.57,3.43-21.84,5.3-33.54,5.3c-60.55,0-109.63-49.69-109.63-110.98S91.65,151.23,152.2,151.23
		c6.08,0,12.04,0.51,17.85,1.47v21.2c-5.63-1.13-11.46-1.73-17.42-1.73c-49.12,0-88.95,40.31-88.95,90.04s39.82,90.04,88.95,90.04
		c11.7,0,22.87-2.29,33.11-6.45v-16.45c-9.97,5.05-21.21,7.89-33.11,7.89c-40.94,0-74.12-33.59-74.12-75.03
		c0-41.44,33.19-75.03,74.12-75.03c11.9,0,23.14,2.84,33.11,7.89v-10.43v-0.43v-5.41v-22.27v-26.21
		C175.02,127.53,163.78,126.04,152.2,126.04z"/>
	<path d="M152.2,126.04c-74.29,0-134.51,60.96-134.51,136.17S77.91,398.38,152.2,398.38c11.58,0,22.82-1.48,33.54-4.27V367.9
		c-10.57,3.43-21.84,5.3-33.54,5.3c-60.55,0-109.63-49.69-109.63-110.98S91.65,151.23,152.2,151.23c6.08,0,12.04,0.51,17.85,1.47
		v21.2c-5.63-1.13-11.46-1.73-17.42-1.73c-49.12,0-88.95,40.31-88.95,90.04s39.82,90.04,88.95,90.04c11.7,0,22.87-2.29,33.11-6.45
		v-16.45c-9.97,5.05-21.21,7.89-33.11,7.89c-40.94,0-74.12-33.59-74.12-75.03c0-41.44,33.19-75.03,74.12-75.03
		c11.9,0,23.14,2.84,33.11,7.89v-10.43v-0.43v-5.41v-22.27v-26.21C175.02,127.53,163.78,126.04,152.2,126.04z"/>
</g>
<g>
	<path d="M156.53,323.75c-12.23-0.02-22.1-2.55-31.33-7.8c-4.63-2.63-8.83-5.81-12.69-9.58c-5.5-5.38-9.74-11.62-13.05-18.69
		c-2.95-6.31-4.52-12.93-5.13-19.86c-0.89-10.01,0.36-19.74,4.16-28.97c1.74-4.23,3.81-8.34,6.48-12.04
		c3.65-5.05,7.81-9.63,12.7-13.38c8.15-6.26,17.21-10.35,27.23-11.95c11.93-1.9,23.48-0.53,34.6,4.48c5.32,2.4,10.22,5.51,14.7,9.4
		c5.16,4.47,9.42,9.67,13,15.61c3,4.98,4.81,10.38,6.49,15.93c1.93,6.37,2.11,12.88,1.89,19.43c-0.1,3.07-0.48,6.15-1.28,9.12
		c-1.51,5.62-3.13,11.25-6.03,16.28c-1.92,3.33-3.87,6.7-6.39,9.59c-2,2.3-4.02,4.62-6.28,6.63c-8.33,7.42-17.83,12.4-28.61,14.58
		C162.96,323.34,158.9,323.83,156.53,323.75z M157.34,220.15c-0.6,0.09-0.48,0.63-0.8,0.79c-0.24,0.12-0.47,0.53-0.75,0.11
		c-0.19-0.28-0.24-0.68-0.45-0.94c-0.27-0.32-0.66-0.61-1.09-0.44c-0.36,0.14-0.75,0.36-0.56,0.96c0.1,0.32-0.29,0.4-0.48,0.57
		c-0.26,0.23-0.5,0.47-0.74,0.71c-0.22,0.21,0.25,0.75-0.26,0.75c-0.45,0-0.67-0.39-0.75-0.88c-0.06-0.34-0.29-0.74-0.7-0.42
		c-1.52,1.17-3.06,0.44-4.56,0.03c-0.82-0.23-1.82,0.17-1.93,1.08c-0.04,0.32,0.05,0.66-0.36,0.74c-0.38,0.08-0.56-0.24-0.69-0.5
		c-0.38-0.76-0.93-0.8-1.61-0.5c-0.27,0.12-0.58,0.19-0.88,0.2c-0.5,0.02-1.1,0.08-0.74-0.8c0.14-0.36,0.05-0.55-0.34-0.47
		c-0.91,0.2-1.7-0.28-2.5-0.55c-0.76-0.25-1.41-0.41-2.15,0.05c-0.49,0.31-0.98,0.2-1.42-0.27c-0.35-0.39-0.79-0.7-1.19-1.04
		c-0.9,1.58-2.69,1.77-3.95,3.41c0.25-1.33-0.11-1.73-0.71-0.99c-0.69,0.85-1.3,0.47-1.99,0.22c-0.47-0.18-0.94-0.24-1.44-0.24
		c-2.85-0.03-5.65,0.57-8.48,0.73c-0.59,0.03-1.24-0.07-1.77,0.14c-2.25,0.91-4.19,2.26-5.44,4.52c-0.24,0.43-0.23,0.53,0.26,0.69
		c0.88,0.28,0.55,0.78,0.02,1.11c-0.34,0.21-0.77,0.32-1.17,0.38c-0.54,0.08-1.1,0.33-0.97,0.88c0.11,0.47,0.69,0.14,1.08,0.06
		c0.28-0.06,0.62-0.35,0.83-0.02c0.2,0.32-0.05,0.68-0.2,0.99c-0.15,0.3-0.45,0.38-0.72,0.53c-0.84,0.46-1.86,0.52-2.56,1.27
		c-0.28,0.3-0.96,0.65-0.79,0.87c0.3,0.38,0.61,0.66,0.82,1.18c0.14,0.36,0.59-0.45,1.01-0.38c0.24,0.94,0.25,0.84,1.09,0.93
		c0.79,0.09,1.54-0.02,2.52-0.29c-0.62,0.87-1.1,1.54-1.58,2.21c1.1-0.69,2.35-1.31,3.03-2.35c0.94-1.42,2.29-2.19,3.49-3.2
		c0.19-0.16,0.57-0.29,0.7,0.01c0.19,0.41-0.19,0.52-0.49,0.61c-0.69,0.21-0.95,0.7-0.9,1.42c0.67-0.58,1.74-0.63,2.07-1.46
		c0.32-0.81,0.93-0.86,1.33-0.62c1.27,0.78,2.62,0.55,3.96,0.65c0.67,0.05,1.36,0.08,1.69,0.91c0.1,0.25,0.46,0.53,0.73,0.33
		c1.08-0.78,1.82-0.58,2.29,0.73c0.18,0.51,0.57,0.82,0.87,1.22c0.42,0.58,1.29,1,0.69,1.99c-0.08,0.13-0.02,0.51,0.18,0.48
		c0.65-0.1,0.43,0.47,0.6,0.74c0.48,0.75,0.46,1.89,1.89,1.82c0.78-0.04,1.85,0.51,1.92,1.79c0.02,0.37,0.09,0.78-0.5,0.6
		c-0.86-0.26-1.46-0.22-1.02,1c0.06,0.16-0.03,0.38-0.07,0.58c-0.33,1.73-0.64,3.47-0.71,5.24c-0.03,0.73-0.01,1.52,0.67,1.86
		c0.61,0.31,0.65,0.78,0.73,1.33c0.14,0.93,0.44,1.7,1.45,1.97c0.68,0.18,1.14,0.67,1.4,1.42c0.21,0.61,0.32,1.37,1.15,1.77
		c0.11-0.54-0.4-1.27,0.49-1.37c0.74-0.08,0.88,0.42,1.04,0.96c0.11,0.35,0.35,0.59,0.6,0.84c1.4,1.41,2.31,3.23,3.6,4.74
		c0.52,0.61,0.93,1.36,0.56,2.28c-0.18,0.47,0.18,0.69,0.46,0.97c0.96,0.9,2.19,1.19,3.35,1.61c1.14,0.41,2.31,0.64,3.54,0.28
		c0.67-0.2,1.33,0.11,1.85,0.64c0.67,0.68,1.47,1.17,2.4,1.17c0.9,0,1.58,0.41,2.23,0.96c0.29,0.25,1.1,0.51,0.14,1.04
		c-0.22,0.12-0.18,0.51,0.2,0.6c0.65,0.14,1.12,0.59,1.65,0.97c1.07,0.76,1.65,0.65,2.07-0.36c-1.02,0.57-1.64,0.05-2.25-0.72
		c-0.64-0.82-0.31-1.65-0.15-2.48c0.27-1.36-0.18-1.89-1.5-1.74c-0.48,0.06-0.97,0.15-1.45,0.2c-0.59,0.05-0.76-0.13-0.6-0.83
		c0.25-1.11,0.77-2.1,1.08-3.18c0.12-0.4,0.18-0.8-0.36-0.67c-0.57,0.14-1.28,0.25-1.48,0.93c-0.33,1.11-1.03,1.56-2.06,1.88
		c-1.71,0.53-3.54-0.61-3.72-2.5c-0.16-1.63,0.61-3.17,0.49-4.8c-0.01-0.16,0.13-0.39,0.27-0.51c1.36-1.14,2.73-2.33,4.64-1.6
		c0.49,0.19,0.72-0.31,1.11-0.24c-0.06-0.95,0.67-0.56,1.09-0.7c1.01-0.33,1.9,0.44,2.83,0.38c0.88-0.05,1.11,0.37,1.36,1.04
		c0.21,0.58,0.16,1.25,0.55,1.77c0.15,0.2,0.23,0.58,0.57,0.44c0.26-0.11,0.34-0.45,0.29-0.72c-0.12-0.62-0.28-1.23-0.45-1.83
		c-0.38-1.41-0.14-2.2,0.98-3.09c0.48-0.38,1.01-0.68,1.49-1.06c0.83-0.67,1.61-1.32,1.18-2.69c-0.21-0.67-0.14-1.98,0.51-1.94
		c1.38,0.09,1.68-1,2.47-1.59c0.82-0.6,1.76-0.97,2.24-1.98c0.06-0.12,0.23-0.24,0.36-0.25c1.19-0.08,1.99-1.1,3.09-1.39
		c0.4-0.1,0.72-0.42,0.74-0.8c0.01-0.35,0-0.78-0.55-1c-0.56-0.22-0.4-0.52,0.17-0.62c0.28-0.05,0.64-0.24,0.55-0.61
		c-0.09-0.37-0.49-0.3-0.78-0.29c-0.74,0.03-1.36,0.41-1.96,0.83c-0.61,0.42-1.21,0.85-1.82,1.27c1.3-1.9,2.76-3.49,5.25-3.17
		c0.67,0.09,1.35,0.07,2.03,0.11c0.46,0.03,0.94,0.04,1.28-0.31c0.51-0.53,1.08-0.81,1.79-0.86c0.28-0.02,0.62-0.15,0.66-0.54
		c0.04-0.39-0.3-0.52-0.53-0.69c-0.33-0.25-0.71-0.17-1.09-0.15c-0.5,0.02-1.1,0.88-1.42,0.15c-0.15-0.34,0.87-0.31,1.29-0.61
		c0.06-0.04,0.11-0.1,0.18-0.16c-0.32-0.26-0.65-0.41-0.99-0.58c-0.76-0.38-1.91-0.77-1.98-1.54c-0.15-1.6-1.39-2.39-1.83-3.76
		c-0.61,0.72-0.89,1.86-1.94,1.39c-0.85-0.37-1.89-0.77-1.72-2.13c0.03-0.25-0.11-0.35-0.29-0.43c-1.21-0.55-2.11-1.77-3.73-1.44
		c-1.03,0.21-1.4,0.3-1.29,1.46c0.04,0.39,0.22,0.82-0.14,1.1c-0.53,0.42-0.29,0.66,0.01,1.11c1.35,2.04,1.03,2.5-0.67,3.52
		c-0.61,0.37-0.67,0.51-0.33,1.18c0.4,0.79,0.17,1.66-0.69,2.1c-0.87,0.45-1.18-0.34-1.58-0.89c-0.32-0.44-0.4-0.93-0.31-1.46
		c0.14-0.81-0.22-1.12-0.96-1.2c-1.02-0.11-1.93-0.49-2.76-1.18c-0.64-0.52-1.45-0.82-2.29-0.9c-0.26-0.03-2.35-2.04-2.34-2.3
		c0.01-0.23,0.06-0.47,0.14-0.68c0.21-0.56,0.54-1.02,0.95-1.45c0.57-0.61,1.38-1.01,1.84-1.61c0.54-0.7,0.83-1.44,1.86-1.26
		c0.23,0.04,0.47-0.08,0.47-0.38c0-0.3-0.23-0.36-0.46-0.41c-0.38-0.07-0.81,0.1-1.17-0.18c0.37-0.6,0.88-0.45,1.36-0.47
		c0.34-0.01,0.63,0.3,0.98,0.13c0.2-0.1,2.05-0.79,2.14-0.85c0.46-0.31,1.5-0.06,1.29-0.98c-0.12-0.52-0.24-0.98-0.23-1.54
		c0.01-0.59-0.48-0.95-1.02-1.07c-0.65-0.14-0.48,0.4-0.63,0.79c-0.25,0.68-0.69,1.3-1.11,1.9c-0.26,0.37-0.6,0.31-0.98,0.02
		C156.68,221.71,157.33,220.93,157.34,220.15z M173.86,306.8c0.26-0.13,0.36,0.01,0.48,0.09c1.72,1.17,2.97,0.79,3.93-1.15
		c0.35-0.7,0.85-1.23,1.54-1.66c0.68-0.42,1.63-0.96,1.52-1.88c-0.2-1.7,0.64-2.33,1.94-2.77c0.6-0.21,1.14-0.67,1.74-0.81
		c1.4-0.31,2.44-0.84,3.44-2.13c1.1-1.42,1.93-2.74,2-4.55c0.02-0.58,0.11-1.23,0.59-1.46c1.1-0.54,1.68-1.71,2.8-2.28
		c1.26-0.64,1.25-2.89,0.08-3.3c-0.79-0.27-1.36-0.79-2.03-1.2c-1.24-0.75-2.63-0.89-4.01-0.96c-0.46-0.02-0.69-0.06-0.99-0.46
		c-0.85-1.1-1.88-1.26-3.06-0.58c-0.42,0.25-0.89,0.31-1.31,0.19c-1.16-0.31-2.29-0.48-3.64,0.28c0.35-0.54,0.59-0.77,0.88-0.81
		c1.04-0.14,1.51-1.12,2.31-1.62c0.27-0.17,0.51-0.57,0.38-0.8c-0.68-1.19-1.07-2.74-2.59-3.06c-1.26-0.27-2.54-0.51-3.84-0.47
		c-0.22,0.01-0.42-0.05-0.34-0.3c0.44-1.4-0.69-1.02-1.27-1.23c-0.4-0.14-0.84,0.26-1.43-0.08c1.1-0.4,0.98-0.69,0.12-1.07
		c-0.44-0.2-0.82-0.26-1.29-0.2c-1.22,0.15-2.42,0.15-3.52-0.6c-0.62-0.42-1.56,0.03-1.59,0.76c-0.01,0.44-0.02,0.88-0.53,0.82
		c-0.45-0.05-0.52-0.46-0.41-0.92c0.2-0.83-0.2-0.78-0.81-0.65c-1.09,0.23-1.78,1.09-2.32,1.89c-0.47,0.69-1.21,0.35-1.41,0.63
		c-0.36,0.52,0.47,1.06,0.36,1.87c-0.19,1.46-1,2.42-1.75,3.51c-0.57,0.83-1.29,1.85-0.83,2.85c0.26,0.56,0.18,0.72-0.12,0.98
		c-0.76,0.69-0.67,1.49,0,2.01c1.8,1.4,2.31,3.53,3.09,5.52c0.24,0.63,0.54,1.1,1.16,1.35c0.56,0.23,1.1,0.52,1.65,0.77
		c1.21,0.55,1.67,1.33,1.52,2.7c-0.09,0.86-0.24,1.72-0.39,2.57c-0.66,3.77-0.45,7.68-1.86,11.34c-0.33,0.85-0.39,2.2-0.04,2.95
		c0.37,0.78,0.48,1.56,0.29,2.14c-0.28,0.87,0.53,2.51-1.45,2.53c0.95,0.06,1,0.57,0.91,1.27c-0.08,0.68,0.29,1.06,0.97,0.93
		c1.07-0.2,2.14-0.41,3.2-0.68c0.57-0.15,0.8-0.58,0.23-0.99c-1.05-0.75-0.58-1.26,0.12-1.9c0.79-0.72,1.19-1.62,0.9-2.78
		c-0.17-0.66,0.09-1.07,0.77-0.75c0.66,0.31,1.16,0.11,1.11-0.58c-0.11-1.36,0.7-1.29,1.54-1.34c0.41-0.03,0.83-0.12,1.21-0.27
		c0.92-0.36,1.07-1,0.77-1.98C174.37,307.91,173.68,307.56,173.86,306.8z M167.33,210.68c1.2,1.46,3.05,0.58,4.29,1.73
		c-0.75,0.17-1.33-0.06-1.92-0.05c-0.33,0.01-0.76,0-0.77,0.48c-0.01,0.48,0.41,0.75,0.78,0.65c0.96-0.28,1.84,0.13,2.76,0.16
		c2.32,0.09,4.19,1.29,5.75,2.88c0.62,0.64,1.81,1.46,1.09,2.89c-0.16,0.32,0.23,0.35,0.52,0.33c0.94-0.06,1.88,0.38,2.49,0.88
		c0.74,0.61,0.77,1.92,0.81,2.94c0.06,1.57-0.05,1.57-1.55,1.29c-0.03-0.01-0.07,0.03-0.17,0.07c0.22,0.55-0.05,1.29,0.92,1.53
		c0.2,0.05,1.26,0.66,1.16,1.32c-0.11,0.77,0.27,1.3,0.67,1.48c1.05,0.46,1.34,2.09,2.91,1.85c0.5-0.08,1.5,1.08,1.93,0.85
		c0.56-0.3,0.74-1.36,1.09-2.09c0.12-0.24,0.33-0.39,0.4-0.68c0.27-1.07,1.86-1.88,2.8-1.49c0.79,0.33,2.78-0.01,3.05-0.67
		c0.22-0.53,0.37-0.38,0.72-0.27c1.2,0.37,2.44,0.47,3.82,0.51c-0.43-0.87-1.11-1.26-1.47-1.85c-1.35-2.18-3.11-3.92-4.95-5.61
		c-2.16-1.97-4.22-4.05-6.72-5.56c-2.4-1.45-4.45-3.6-7.44-3.81c-1.09-0.08-1.82-1.09-2.82-1.43c-2.24-0.76-4.49,0.02-6.73-0.04
		c-0.02,0-0.04,0.05-0.15,0.21c0.42,0.11,0.79,0.23,1.17,0.32c0.32,0.07,0.59,0.18,0.59,0.58c0,0.43-0.27,0.66-0.63,0.71
		c-0.33,0.05-0.67-0.01-1-0.04C169.68,210.67,168.62,210.5,167.33,210.68z M170.07,226.46c0.26,0.02,0.4,0.02,0.54,0.04
		c0.58,0.06,1.44,0.55,1.68,0.07c0.32-0.62-0.71-0.83-0.99-1.35c-0.02-0.03-0.05-0.06-0.08-0.08c-0.33-0.28-0.72-0.56-0.34-1.06
		c0.38-0.49,0.69-0.14,1.05,0.13c0.54,0.42,1.08,0.97,1.7,1.1c0.68,0.14,0.75-0.96,1.36-1.19c0.02-0.01,0-0.13,0-0.18
		c-1.38-0.12-2.49-0.93-3.63-1.61c-0.33-0.2-0.85-0.27-0.97-0.73c-0.4-1.56-0.45-1.64-1.66-2.2c-0.06-0.03-0.13-0.09-0.16-0.16
		c-0.45-1.07-2.29-0.45-2.31-2.07c0-0.08-0.35-0.11-0.49-0.22c-1.13-0.93-2.28,0.74-3.4-0.05c-1.25,0.94-0.78-0.48-0.93-0.83
		c-0.17-0.41,0.14-1.2-0.68-0.94c-0.48,0.15-1.58-0.01-1.02,1.24c0.1,0.22-0.09,0.57-0.12,0.87c-0.04,0.31-0.14,0.5-0.49,0.49
		c-0.36-0.01-0.38-0.23-0.45-0.53c-0.17-0.83-0.23-1.62,0.46-2.29c-1.16-0.08-2.49,0.65-2.65,1.57c-0.14,0.79,0.66,0.78,1.1,1.05
		c0.06,0.04,0.11,0.11,0.15,0.17c0.68,0.94,2.13,1.42,3.15,1.25c1.65-0.27,3.33-0.48,4.82,0.7c0.5,0.39,0.38,1.14,1.31,1.46
		c1.02,0.35,0.91,1.53,0.18,2.66c-0.11,0.16-0.3,0.31-0.17,0.52c0.83,1.31-0.27,0.95-0.83,1.05c-0.37,0.07-0.74,0.12-1.12,0.16
		c-0.3,0.04-0.64,0.01-0.69,0.43c-0.02,0.13,0.06,0.32,0.16,0.4c0.28,0.24,0.59,0.13,0.83-0.07c0.9-0.72,1.63-0.37,2.23,0.42
		c1.03,1.35,2.43,1.22,4.05,1.31C171.05,227.37,170.33,227.31,170.07,226.46z M165.59,209.91c-0.72-0.08-1.14-0.08-1.52-0.18
		c-0.25-0.07-0.49-0.54-0.23-0.57c0.58-0.07,0.99-0.88,1.72-0.37c0.35,0.25,0.91,0.38,1.31,0.14c0.82-0.48,1.74-0.43,2.6-0.64
		c1.21-0.31,2.44-0.52,3.69-0.69c-1.23-1.46-2.83-1.21-4.39-1.14c0.15-0.56,0.54-0.33,0.67-0.52c-1.14-0.56-2.42-0.3-3.59-0.57
		c-0.96-0.22-1.93,0.51-2.81-0.21c-0.02-0.02-0.08-0.01-0.11,0c-1.01,0.52-1.96,0.3-2.9-0.22c-0.4-0.22-0.58-0.19-0.67,0.04
		c-0.25,0.61-0.25,0.55-0.82,0.45c-0.49-0.09-1.34-1.04-1.34,0.49c0,0.06-0.35,0.12-0.57,0.2c2.3,0.32,4.56,0.5,6.83,0.54
		c0.34,0.01,0.94-0.18,0.92,0.32c-0.02,0.45-0.56,0.69-1.07,0.61c-0.55-0.08-1.11-0.18-1.64-0.02c-0.2,0.37,0.56,0.37,0.23,0.77
		c-0.39,0.09-0.67-0.11-0.88-0.4c-0.62-0.83-1.32-1.1-2.2-0.44c-0.17,0.13-0.37,0.19-0.48-0.03c-0.35-0.68-0.99-0.44-1.51-0.54
		c-0.55-0.11-1.14-0.06-1.45-0.72c-0.22-0.47-0.56-0.73-1.1-0.57c0.25,0.42-0.39,0.84,0.06,1.32c0.45,0.48-0.44,0.19-0.34,0.58
		c0.45,0.21,0.92,0.43,1.46,0.68c-0.08,0.26-0.59,0.32-0.36,0.74c0.21,0.38,0.52,0.35,0.88,0.34c0.59-0.02,1.08-0.27,1.6-0.5
		c1.95-0.85,2.4-0.78,3.28,0.48c-0.87,0.01-1.72-0.39-2.61,0.02c0.38,0.31,0.71,0.17,1.03,0.17c0.68,0,0.69,0.86,1.22,1.03
		c-0.04,0.1-0.05,0.27-0.12,0.29c-0.48,0.18-0.87-0.03-1.25-0.32c-0.3-0.22-0.97-0.48-0.96-0.29c0.06,0.9-0.81,0.66-1.09,1.06
		c0.17,0.3,0.41,0.23,0.61,0.29c1.27,0.39,2.58-0.64,3.76,0.06c0.71,0.42,1.27,0.54,2.06,0.16c-0.36-0.27-0.63-0.47-0.87-0.64
		C163.5,210.59,164.53,210.73,165.59,209.91z M144.68,216.93c-0.11-0.36,0.37-1.36-0.18-1.17c-0.66,0.23-1.6-0.53-2.05,0.63
		c-0.2,0.53-0.62,0.07-0.89-0.19c-0.27-0.26,0.11-0.71-0.23-0.95c-1.04,0.58-2.32,0.79-2.76,2.16c0.61,0.53,1.33-0.15,2.04,0.08
		c-0.15,0.54-0.74,0.42-0.95,0.82c0.99,0.17,1.97-0.31,3.03-0.01c-0.28,0.64-0.73,0.74-1.23,0.8c-0.52,0.06-1.04,0.17-1.55,0.27
		c-0.39,0.08-0.58,0.5-0.21,0.61c0.69,0.2,1.21,0.94,1.91,0.85c1.26-0.16,2.53-0.43,3.65-1.12c0.49-0.3,0.8-0.47,1.31,0.07
		c0.56,0.6,0.94,0.4,1.05-0.35c0.03-0.2,0.17-0.22,0.32-0.25c0.32-0.06,0.64-0.14,1.11-0.24c-1.18-0.3-2.05-0.75-2.41-1.91
		c-0.21-0.67-0.7-0.62-1.19-0.36C145.24,216.78,145.11,217.12,144.68,216.93z M140.32,214.86c-1.03-0.34-2.07-0.46-3.07-0.56
		c-1.14-0.11-2.48,2.06-2.18,3.26c0.06,0.26,0.34,0.66,0.49,0.56c0.66-0.47,1.64-0.19,2.12-0.89
		C138.37,216.22,139.23,215.48,140.32,214.86z M153.11,210.88c0.17,0.49,0.54,0.52,0.91,0.56c0.43,0.05,1.01,0.23,1.01,0.61
		c0.04,1.66,0.94,1.78,2.15,1.53c0.09-0.02,0.2,0.13,0.3,0.14c1.34,0.14,2.69,0.03,4.03,0.29c0.31,0.06,0.63-0.06,0.72-0.42
		c0.11-0.44-0.25-0.51-0.53-0.6c-0.79-0.27-1.57-0.49-2.42-0.31c-1.19,0.25-2.57,0.19-3.33-0.62
		C155.07,211.1,154.06,211.24,153.11,210.88z M148.47,215.9c0.72,0.22,1.28,0.69,1.87,1.08c0.71,0.48,1.27-0.06,1.68-0.46
		c0.55-0.54-0.25-0.63-0.48-0.89c-0.17-0.2-0.49-0.35-0.28-0.67c0.47-0.74-0.28-0.42-0.37-0.41c-0.44,0.06-1.35-0.1-1.24,0.31
		C150.1,216.49,149.02,215.72,148.47,215.9z"/>
</g>
<g>
	<g>
		<path d="M251.23,209.21c-6.25,0-11.13,1.96-14.65,5.88c-3.52,3.92-5.28,9.5-5.28,16.76c0,7.2,1.73,12.76,5.2,16.68
			c3.47,3.92,8.35,5.88,14.65,5.88c2.12,0,4.17-0.2,6.15-0.6c1.99-0.4,3.82-0.97,5.52-1.71l1.35,4.45c-1.91,0.9-3.91,1.59-6,2.07
			c-2.09,0.48-4.46,0.71-7.11,0.71c-4.34,0-8.09-0.66-11.24-1.99c-3.15-1.32-5.76-3.18-7.82-5.56c-2.06-2.38-3.6-5.27-4.61-8.66
			c-1.01-3.39-1.51-7.15-1.51-11.28c0-4.02,0.56-7.73,1.67-11.12c1.11-3.39,2.74-6.29,4.88-8.7c2.14-2.41,4.78-4.29,7.9-5.64
			c3.12-1.35,6.72-2.03,10.8-2.03c2.65,0,4.95,0.21,6.91,0.64c1.96,0.42,3.81,1.03,5.56,1.83c-0.21,0.74-0.44,1.48-0.67,2.22
			c-0.24,0.74-0.46,1.48-0.68,2.22C259.19,209.9,255.52,209.21,251.23,209.21z"/>
		<path d="M292.28,259.32c-4.08,0-7.58-0.69-10.52-2.07c-2.94-1.38-5.39-3.3-7.35-5.76c-1.96-2.46-3.4-5.37-4.33-8.74
			c-0.93-3.36-1.39-7-1.39-10.92c0-3.92,0.46-7.56,1.39-10.92c0.93-3.36,2.37-6.27,4.33-8.74c1.96-2.46,4.41-4.38,7.35-5.76
			c2.94-1.38,6.45-2.06,10.52-2.06c4.02,0,7.53,0.69,10.52,2.06c2.99,1.38,5.45,3.3,7.39,5.76c1.93,2.46,3.38,5.37,4.33,8.74
			c0.95,3.36,1.43,7,1.43,10.92c0,3.92-0.48,7.56-1.43,10.92c-0.95,3.36-2.4,6.27-4.33,8.74c-1.93,2.46-4.4,4.38-7.39,5.76
			C299.82,258.63,296.31,259.32,292.28,259.32z M292.28,254.87c3.07,0,5.74-0.53,8.02-1.59c2.28-1.06,4.17-2.58,5.68-4.57
			s2.63-4.41,3.38-7.27c0.74-2.86,1.11-6.06,1.11-9.61c0-3.55-0.37-6.75-1.11-9.61c-0.74-2.86-1.87-5.28-3.38-7.27
			s-3.4-3.51-5.68-4.57c-2.28-1.06-4.95-1.59-8.02-1.59c-3.07,0-5.76,0.53-8.06,1.59c-2.3,1.06-4.21,2.58-5.72,4.57
			s-2.63,4.41-3.38,7.27c-0.74,2.86-1.11,6.06-1.11,9.61c0,3.55,0.37,6.75,1.11,9.61c0.74,2.86,1.87,5.28,3.38,7.27
			s3.42,3.51,5.72,4.57C286.53,254.34,289.21,254.87,292.28,254.87z"/>
		<path d="M360.1,220.8c0,3.87-1.15,7.17-3.45,9.93c-2.3,2.75-5.44,4.66-9.41,5.72l13.1,22.16h-6.04L341.6,237h-12.47v21.6h-5.4
			v-53.53h18.9c2.75,0,5.21,0.41,7.39,1.23c2.17,0.82,4,1.93,5.48,3.34c1.48,1.4,2.62,3.06,3.42,4.96
			C359.71,216.51,360.1,218.58,360.1,220.8z M354.62,220.8c0-3.28-1.02-5.88-3.06-7.78c-2.04-1.91-5.02-2.86-8.93-2.86h-13.5V232
			h13.02c3.86,0,6.91-1,9.13-3.02C353.51,226.97,354.62,224.24,354.62,220.8z"/>
		<path d="M396.63,241.53c1.11,1.85,2.12,3.61,3.02,5.28c0.9,1.67,1.61,3.03,2.14,4.09l0.56-0.16c-0.16-1.85-0.28-3.68-0.36-5.48
			c-0.08-1.8-0.12-3.81-0.12-6.04v-34.15h5.48v53.53h-6.04l-22.71-36.45c-0.85-1.22-1.72-2.69-2.62-4.41
			c-0.9-1.72-1.67-3.24-2.3-4.57v0.16c0-0.05-0.03-0.11-0.08-0.16c-0.05-0.05-0.08-0.11-0.08-0.16h-0.63
			c0.16,1.85,0.28,3.67,0.36,5.44c0.08,1.77,0.12,3.77,0.12,6v34.15h-5.48v-53.53h6.04L396.63,241.53z"/>
		<path d="M418.08,205.08h32.08V210h-26.6v18.5h25.02v4.92h-25.02v20.25h27.08v4.92h-32.56V205.08z"/>
		<path d="M495.27,220.8c0,3.87-1.15,7.17-3.46,9.93c-2.3,2.75-5.44,4.66-9.41,5.72l13.1,22.16h-6.04L476.77,237H464.3v21.6h-5.4
			v-53.53h18.9c2.75,0,5.21,0.41,7.39,1.23c2.17,0.82,4,1.93,5.48,3.34c1.48,1.4,2.62,3.06,3.42,4.96
			C494.87,216.51,495.27,218.58,495.27,220.8z M489.79,220.8c0-3.28-1.02-5.88-3.06-7.78c-2.04-1.91-5.02-2.86-8.93-2.86h-13.5V232
			h13.02c3.86,0,6.91-1,9.13-3.02C488.68,226.97,489.79,224.24,489.79,220.8z"/>
		<path d="M516.08,259.32c-1.85,0-3.52-0.07-5-0.2c-1.48-0.13-2.82-0.33-4.01-0.6c-1.19-0.26-2.29-0.57-3.3-0.91
			c-1.01-0.34-1.93-0.75-2.78-1.23c0.21-0.74,0.45-1.48,0.71-2.22c0.26-0.74,0.5-1.46,0.71-2.14c1.59,0.74,3.44,1.35,5.56,1.83
			c2.12,0.48,4.58,0.71,7.39,0.71c1.96,0,3.79-0.18,5.48-0.56c1.69-0.37,3.14-0.96,4.33-1.79c1.19-0.82,2.13-1.87,2.82-3.14
			c0.69-1.27,1.03-2.78,1.03-4.53s-0.36-3.2-1.07-4.37c-0.71-1.16-1.68-2.17-2.9-3.02c-1.22-0.85-2.62-1.55-4.21-2.1
			c-1.59-0.56-3.26-1.12-5-1.71c-1.64-0.53-3.35-1.18-5.12-1.95c-1.77-0.77-3.39-1.72-4.84-2.86c-1.46-1.14-2.65-2.54-3.57-4.21
			c-0.93-1.67-1.39-3.69-1.39-6.08c0-1.96,0.33-3.8,0.99-5.52c0.66-1.72,1.71-3.19,3.14-4.41c1.43-1.22,3.24-2.18,5.44-2.9
			c2.2-0.71,4.86-1.07,7.98-1.07c2.54,0,4.87,0.23,6.99,0.68c2.12,0.45,4.08,1.13,5.88,2.02c-0.21,0.74-0.46,1.48-0.75,2.22
			c-0.29,0.74-0.54,1.46-0.75,2.14c-1.54-0.74-3.28-1.31-5.24-1.71c-1.96-0.4-4-0.6-6.12-0.6c-4.4,0-7.54,0.85-9.45,2.54
			c-1.91,1.7-2.86,3.87-2.86,6.51c0,1.64,0.33,3.02,0.99,4.13s1.55,2.06,2.66,2.86c1.11,0.79,2.42,1.48,3.93,2.06
			c1.51,0.58,3.11,1.17,4.8,1.75c1.91,0.64,3.8,1.34,5.68,2.1c1.88,0.77,3.56,1.73,5.04,2.9c1.48,1.17,2.69,2.61,3.61,4.33
			c0.93,1.72,1.39,3.83,1.39,6.31c0,2.49-0.45,4.65-1.35,6.47s-2.16,3.35-3.77,4.57c-1.62,1.22-3.53,2.13-5.76,2.74
			C521.16,259.01,518.72,259.32,516.08,259.32z"/>
		<path d="M558.96,210.08v48.52h-5.48v-48.52c-2.7,0-5.45,0.01-8.26,0.04c-2.81,0.03-5.56,0.04-8.26,0.04v-5.08h38.52v5.08
			L558.96,210.08z"/>
		<path d="M601.45,259.32c-4.08,0-7.58-0.69-10.52-2.07s-5.39-3.3-7.35-5.76c-1.96-2.46-3.4-5.37-4.33-8.74
			c-0.93-3.36-1.39-7-1.39-10.92c0-3.92,0.46-7.56,1.39-10.92c0.93-3.36,2.37-6.27,4.33-8.74c1.96-2.46,4.41-4.38,7.35-5.76
			c2.94-1.38,6.45-2.06,10.52-2.06c4.02,0,7.53,0.69,10.52,2.06c2.99,1.38,5.45,3.3,7.39,5.76c1.93,2.46,3.38,5.37,4.33,8.74
			c0.95,3.36,1.43,7,1.43,10.92c0,3.92-0.48,7.56-1.43,10.92c-0.95,3.36-2.4,6.27-4.33,8.74c-1.93,2.46-4.4,4.38-7.39,5.76
			C608.98,258.63,605.47,259.32,601.45,259.32z M601.45,254.87c3.07,0,5.74-0.53,8.02-1.59c2.28-1.06,4.17-2.58,5.68-4.57
			c1.51-1.99,2.63-4.41,3.38-7.27c0.74-2.86,1.11-6.06,1.11-9.61c0-3.55-0.37-6.75-1.11-9.61c-0.74-2.86-1.87-5.28-3.38-7.27
			c-1.51-1.99-3.4-3.51-5.68-4.57c-2.28-1.06-4.95-1.59-8.02-1.59s-5.76,0.53-8.06,1.59c-2.3,1.06-4.21,2.58-5.72,4.57
			s-2.63,4.41-3.38,7.27c-0.74,2.86-1.11,6.06-1.11,9.61c0,3.55,0.37,6.75,1.11,9.61c0.74,2.86,1.87,5.28,3.38,7.27
			s3.42,3.51,5.72,4.57C595.69,254.34,598.38,254.87,601.45,254.87z"/>
		<path d="M661.64,241.53c1.11,1.85,2.12,3.61,3.02,5.28c0.9,1.67,1.61,3.03,2.14,4.09l0.56-0.16c-0.16-1.85-0.28-3.68-0.36-5.48
			c-0.08-1.8-0.12-3.81-0.12-6.04v-34.15h5.48v53.53h-6.04l-22.71-36.45c-0.85-1.22-1.72-2.69-2.62-4.41
			c-0.9-1.72-1.67-3.24-2.3-4.57v0.16c0-0.05-0.03-0.11-0.08-0.16c-0.05-0.05-0.08-0.11-0.08-0.16h-0.63
			c0.16,1.85,0.28,3.67,0.36,5.44c0.08,1.77,0.12,3.77,0.12,6v34.15h-5.48v-53.53h6.04L661.64,241.53z"/>
		<path d="M683.08,205.08h32.08V210h-26.6v18.5h25.02v4.92h-25.02v20.25h27.08v4.92h-32.56V205.08z"/>
	</g>
</g>
<text transform="matrix(1 0 0 1 223.0027 330.0726)" class="st2 st3 st4">CHURCH</text>
</svg>
